<svg width="142" height="40" viewBox="0 0 142 40" fill="none" xmlns="http://www.w3.org/2000/svg">
<rect y="20" width="10" height="10" fill="black"/>
<rect y="10" width="10" height="10" fill="black"/>
<rect x="10" width="122" height="10" fill="black"/>
<rect width="10" height="10" transform="matrix(-1 0 0 1 142 10)" fill="black"/>
<rect width="10" height="10" transform="matrix(-1 0 0 1 142 20)" fill="black"/>
<rect x="10" y="30" width="122" height="10" fill="black"/>
<rect x="12" y="12" width="10" height="16" fill="#E23838"/>
<rect x="24" y="12" width="10" height="16" fill="#E23838"/>
<path d="M90.762 25.014V22.648H91.924V21.486H93.086V20.324H94.262V16.838H91.952V18.014H90.762V16.824H91.924V15.648H95.452V16.824H96.614V20.338H95.452V21.514H94.276V22.676H93.114V23.824H94.262H96.614V25.014H90.762ZM104.976 23.838V25.014H100.286V23.838H99.1241V16.824H100.286V15.648H104.976V16.824H106.138V23.838H104.976ZM103.786 16.838H101.476V23.824H103.786V16.838ZM122.676 23.838V25.014H119.162V23.838H117.986V20.324H119.162V19.148H122.676V20.324H123.852V23.838H122.676ZM116.852 19.176V21.514H115.676V25.014H114.486V21.486H115.662V19.148H116.824V16.838H114.514V20.338H113.352V21.514H109.824V20.338H108.662V16.824H109.824V15.648H118.014V19.176H116.852ZM121.486 20.338H120.352V23.824H121.486V20.338ZM112.162 16.838H111.014V20.324H112.162V16.838Z" fill="black"/>
</svg>
