<svg width="119" height="119" viewBox="0 0 119 119" fill="none" xmlns="http://www.w3.org/2000/svg">
<path fill-rule="evenodd" clip-rule="evenodd" d="M59.5 114C89.5995 114 114 89.5995 114 59.5C114 29.4005 89.5995 5 59.5 5C29.4005 5 5 29.4005 5 59.5C5 89.5995 29.4005 114 59.5 114ZM59.5 83.931C72.9929 83.931 83.931 72.9929 83.931 59.5C83.931 46.0071 72.9929 35.069 59.5 35.069C46.0071 35.069 35.069 46.0071 35.069 59.5C35.069 72.9929 46.0071 83.931 59.5 83.931Z" fill="#2B13E5"/>
<path d="M109 59.5C109 86.8381 86.8381 109 59.5 109V119C92.3609 119 119 92.3609 119 59.5H109ZM59.5 10C86.8381 10 109 32.1619 109 59.5H119C119 26.6391 92.3609 0 59.5 0V10ZM10 59.5C10 32.1619 32.1619 10 59.5 10V0C26.6391 0 0 26.6391 0 59.5H10ZM59.5 109C32.1619 109 10 86.8381 10 59.5H0C0 92.3609 26.6391 119 59.5 119V109ZM78.931 59.5C78.931 70.2315 70.2315 78.931 59.5 78.931V88.931C75.7543 88.931 88.931 75.7543 88.931 59.5H78.931ZM59.5 40.069C70.2315 40.069 78.931 48.7685 78.931 59.5H88.931C88.931 43.2457 75.7543 30.069 59.5 30.069V40.069ZM40.069 59.5C40.069 48.7685 48.7685 40.069 59.5 40.069V30.069C43.2457 30.069 30.069 43.2457 30.069 59.5H40.069ZM59.5 78.931C48.7685 78.931 40.069 70.2315 40.069 59.5H30.069C30.069 75.7543 43.2457 88.931 59.5 88.931V78.931Z" fill="black"/>
</svg>
