<svg width="59" height="119" viewBox="0 0 59 119" fill="none" xmlns="http://www.w3.org/2000/svg">
<path fill-rule="evenodd" clip-rule="evenodd" d="M-0.5 114C29.5995 114 54 89.5995 54 59.5C54 29.4005 29.5995 5 -0.5 5C-30.5995 5 -55 29.4005 -55 59.5C-55 89.5995 -30.5995 114 -0.5 114ZM-0.5 83.931C12.9929 83.931 23.931 72.9929 23.931 59.5C23.931 46.0071 12.9929 35.069 -0.5 35.069C-13.9929 35.069 -24.931 46.0071 -24.931 59.5C-24.931 72.9929 -13.9929 83.931 -0.5 83.931Z" fill="#EF5452"/>
<path d="M49 59.5C49 86.8381 26.8381 109 -0.5 109V119C32.3609 119 59 92.3609 59 59.5H49ZM-0.5 10C26.8381 10 49 32.1619 49 59.5H59C59 26.6391 32.3609 0 -0.5 0V10ZM-50 59.5C-50 32.1619 -27.8381 10 -0.5 10V0C-33.3609 0 -60 26.6391 -60 59.5H-50ZM-0.5 109C-27.8381 109 -50 86.8381 -50 59.5H-60C-60 92.3609 -33.3609 119 -0.5 119V109ZM18.931 59.5C18.931 70.2315 10.2315 78.931 -0.5 78.931V88.931C15.7543 88.931 28.931 75.7543 28.931 59.5H18.931ZM-0.5 40.069C10.2315 40.069 18.931 48.7685 18.931 59.5H28.931C28.931 43.2457 15.7543 30.069 -0.5 30.069V40.069ZM-19.931 59.5C-19.931 48.7685 -11.2315 40.069 -0.5 40.069V30.069C-16.7543 30.069 -29.931 43.2457 -29.931 59.5H-19.931ZM-0.5 78.931C-11.2315 78.931 -19.931 70.2315 -19.931 59.5H-29.931C-29.931 75.7543 -16.7543 88.931 -0.5 88.931V78.931Z" fill="black"/>
</svg>
