<svg width="75" height="119" viewBox="0 0 75 119" fill="none" xmlns="http://www.w3.org/2000/svg">
<path fill-rule="evenodd" clip-rule="evenodd" d="M15.5 114C45.5995 114 70 89.5995 70 59.5C70 29.4005 45.5995 5 15.5 5C-14.5995 5 -39 29.4005 -39 59.5C-39 89.5995 -14.5995 114 15.5 114ZM15.5 83.931C28.9929 83.931 39.931 72.9929 39.931 59.5C39.931 46.0071 28.9929 35.069 15.5 35.069C2.00711 35.069 -8.93103 46.0071 -8.93103 59.5C-8.93103 72.9929 2.00711 83.931 15.5 83.931Z" fill="#21E3F9"/>
<path d="M65 59.5C65 86.8381 42.8381 109 15.5 109V119C48.3609 119 75 92.3609 75 59.5H65ZM15.5 10C42.8381 10 65 32.1619 65 59.5H75C75 26.6391 48.3609 0 15.5 0V10ZM-34 59.5C-34 32.1619 -11.8381 10 15.5 10V0C-17.3609 0 -44 26.6391 -44 59.5H-34ZM15.5 109C-11.8381 109 -34 86.8381 -34 59.5H-44C-44 92.3609 -17.3609 119 15.5 119V109ZM34.931 59.5C34.931 70.2315 26.2315 78.931 15.5 78.931V88.931C31.7543 88.931 44.931 75.7543 44.931 59.5H34.931ZM15.5 40.069C26.2315 40.069 34.931 48.7685 34.931 59.5H44.931C44.931 43.2457 31.7543 30.069 15.5 30.069V40.069ZM-3.93103 59.5C-3.93103 48.7685 4.76854 40.069 15.5 40.069V30.069C-0.754314 30.069 -13.931 43.2457 -13.931 59.5H-3.93103ZM15.5 78.931C4.76854 78.931 -3.93103 70.2315 -3.93103 59.5H-13.931C-13.931 75.7543 -0.754314 88.931 15.5 88.931V78.931Z" fill="black"/>
</svg>
