<svg width="297" height="163" viewBox="0 0 297 163" fill="none" xmlns="http://www.w3.org/2000/svg">
<path fill-rule="evenodd" clip-rule="evenodd" d="M79.8813 26.5287C73.6544 22.9336 65.692 25.0671 62.0969 31.294L55.5874 42.5689L44.3124 36.0593C38.0855 32.4642 30.1231 34.5977 26.528 40.8246C22.9329 47.0515 25.0664 55.0139 31.2933 58.609L42.5683 65.1186L36.0587 76.3935C32.4636 82.6204 34.5971 90.5827 40.824 94.1779C47.051 97.773 55.0133 95.6395 58.6085 89.4125L65.118 78.1377L76.3928 84.6472C82.6197 88.2423 90.5821 86.1088 94.1772 79.8819C97.7723 73.6549 95.6388 65.6926 89.4119 62.0975L78.1371 55.588L84.6466 44.3131C88.2418 38.0862 86.1083 30.1238 79.8813 26.5287Z" fill="#21E3F9"/>
<path d="M62.0969 31.294L66.427 33.794L62.0969 31.294ZM55.5874 42.5689L53.0874 46.899L57.4175 49.399L59.9175 45.0689L55.5874 42.5689ZM44.3124 36.0593L46.8124 31.7292L46.8124 31.7292L44.3124 36.0593ZM42.5683 65.1186L46.8984 67.6186L49.3984 63.2885L45.0683 60.7885L42.5683 65.1186ZM36.0587 76.3935L40.3888 78.8935L36.0587 76.3935ZM65.118 78.1377L67.618 73.8076L63.2879 71.3076L60.7879 75.6377L65.118 78.1377ZM78.1371 55.588L73.807 53.088L71.307 57.4181L75.6371 59.9181L78.1371 55.588ZM66.427 33.794C68.6414 29.9585 73.5458 28.6444 77.3813 30.8588L82.3813 22.1986C73.7629 17.2227 62.7426 20.1756 57.7668 28.794L66.427 33.794ZM59.9175 45.0689L66.427 33.794L57.7668 28.794L51.2572 40.0689L59.9175 45.0689ZM41.8124 40.3894L53.0874 46.899L58.0874 38.2387L46.8124 31.7292L41.8124 40.3894ZM30.8581 43.3246C33.0725 39.4891 37.9769 38.175 41.8124 40.3894L46.8124 31.7292C38.194 26.7533 27.1737 29.7062 22.1979 38.3246L30.8581 43.3246ZM33.7933 54.2789C29.9578 52.0645 28.6437 47.1601 30.8581 43.3246L22.1979 38.3246C17.222 46.943 20.1749 57.9633 28.7933 62.9391L33.7933 54.2789ZM45.0683 60.7885L33.7933 54.2789L28.7933 62.9391L40.0683 69.4487L45.0683 60.7885ZM40.3888 78.8935L46.8984 67.6186L38.2381 62.6186L31.7286 73.8935L40.3888 78.8935ZM43.324 89.8477C39.4886 87.6333 38.1744 82.7289 40.3888 78.8935L31.7286 73.8935C26.7528 82.5119 29.7056 93.5322 38.324 98.508L43.324 89.8477ZM54.2783 86.9125C52.0639 90.748 47.1595 92.0622 43.324 89.8477L38.324 98.508C46.9424 103.484 57.9627 100.531 62.9386 91.9125L54.2783 86.9125ZM60.7879 75.6377L54.2783 86.9125L62.9386 91.9125L69.4481 80.6377L60.7879 75.6377ZM78.8928 80.3171L67.618 73.8076L62.618 82.4678L73.8928 88.9773L78.8928 80.3171ZM89.8471 77.3819C87.6326 81.2174 82.7282 82.5315 78.8928 80.3171L73.8928 88.9773C82.5112 93.9532 93.5315 91.0003 98.5073 82.3819L89.8471 77.3819ZM86.9119 66.4276C90.7473 68.642 92.0615 73.5464 89.8471 77.3819L98.5073 82.3819C103.483 73.7635 100.53 62.7432 91.9119 57.7673L86.9119 66.4276ZM75.6371 59.9181L86.9119 66.4276L91.9119 57.7673L80.6371 51.2578L75.6371 59.9181ZM80.3165 41.8131L73.807 53.088L82.4672 58.088L88.9768 46.8131L80.3165 41.8131ZM77.3813 30.8588C81.2168 33.0732 82.5309 37.9776 80.3165 41.8131L88.9768 46.8131C93.9526 38.1947 90.9997 27.1744 82.3813 22.1986L77.3813 30.8588Z" fill="black"/>
<rect width="30" height="90" rx="15" transform="matrix(0.5 0.866025 0.866025 -0.5 229 130)" fill="#FBCC1B" stroke="black" stroke-width="10"/>
</svg>
