<svg width="219" height="693" viewBox="0 0 219 693" fill="none" xmlns="http://www.w3.org/2000/svg">
<path d="M142.63 87.8802L140.877 88.9838L140.419 91.0034L135.786 111.394C135.316 113.463 133.275 114.749 131.206 114.279L131.198 114.277L131.191 114.275L110.725 109.69L108.713 109.239L106.968 110.338L94.8307 117.981C86.8284 123.021 76.2402 120.615 71.2009 112.613L49.0261 77.4002C43.9867 69.3979 46.3922 58.8097 54.3945 53.7703L114.331 16.026C122.333 10.9866 132.921 13.3921 137.961 21.3945L160.136 56.6071C165.175 64.6094 162.769 75.1976 154.767 80.237L142.63 87.8802Z" fill="#EF5452" stroke="black" stroke-width="10"/>
<path d="M123.062 49.2443L123.046 49.2189C119.227 42.9905 112.604 41.2686 107.468 44.4153L123.062 49.2443ZM123.062 49.2443L123.077 49.2696M123.062 49.2443L123.077 49.2696M123.077 49.2696C126.86 55.2764 129.531 71.092 116.582 86.2387C97.4355 91.1899 84.3756 82.0266 80.5947 76.0227C76.7266 69.8804 77.9211 63.1278 83.1298 59.7427C86.4478 57.659 89.3735 56.9374 91.3761 56.708C92.3877 56.592 93.1735 56.6009 93.6622 56.6301C93.9061 56.6447 94.0742 56.6642 94.1571 56.6753C94.1737 56.6775 94.1869 56.6794 94.1965 56.6808M123.077 49.2696L94.1965 56.6808M94.1965 56.6808L98.8498 57.6127L99.9643 53.0009C99.9671 52.9917 99.9709 52.9792 99.9758 52.9635C100.001 52.8839 100.054 52.7233 100.144 52.4964C100.324 52.0418 100.649 51.3288 101.182 50.4701C102.241 48.7677 104.142 46.4554 107.467 44.4161L94.1965 56.6808Z" fill="white" stroke="black" stroke-width="10"/>
<circle cx="109.361" cy="583.361" r="75.0577" transform="rotate(-30 109.361 583.361)" fill="#FBCC1B" stroke="black" stroke-width="10"/>
<path d="M84.4277 623.752C108.116 637.014 152.66 648.404 156.568 582.102" stroke="black" stroke-width="10"/>
<ellipse cx="74.6748" cy="575.805" rx="8.22048" ry="17.9024" transform="rotate(-30 74.6748 575.805)" fill="black"/>
<ellipse cx="120.817" cy="549.164" rx="7.91602" ry="17.9024" transform="rotate(-30 120.817 549.164)" fill="black"/>
<path d="M79.3652 626.675L91.3887 619.733" stroke="black" stroke-width="10" stroke-linecap="round"/>
<path d="M149.607 586.121L161.631 579.179" stroke="black" stroke-width="10" stroke-linecap="round"/>
</svg>
