<svg width="530" height="583" viewBox="0 0 530 583" fill="none" xmlns="http://www.w3.org/2000/svg">
<line x1="79" y1="2" x2="79" y2="1040" stroke="#5644DF" stroke-width="2"/>
<line x1="169" y1="2" x2="169" y2="1040" stroke="#5644DF" stroke-width="2"/>
<line x1="259" y1="2" x2="259" y2="1040" stroke="#5644DF" stroke-width="2"/>
<line x1="349" y1="2" x2="349" y2="1040" stroke="#5644DF" stroke-width="2"/>
<line x1="439" y1="2" x2="439" y2="1040" stroke="#5644DF" stroke-width="2"/>
<line x1="529" y1="2" x2="529" y2="1040" stroke="#5644DF" stroke-width="2"/>
<line x1="49" y1="2" x2="49" y2="1040" stroke="#5644DF" stroke-width="2"/>
<line x1="139" y1="2" x2="139" y2="1040" stroke="#5644DF" stroke-width="2"/>
<line x1="229" y1="2" x2="229" y2="1040" stroke="#5644DF" stroke-width="2"/>
<line x1="319" y1="2" x2="319" y2="1040" stroke="#5644DF" stroke-width="2"/>
<line x1="409" y1="2" x2="409" y2="1040" stroke="#5644DF" stroke-width="2"/>
<line x1="499" y1="2" x2="499" y2="1040" stroke="#5644DF" stroke-width="2"/>
<line x1="19" y1="2" x2="19" y2="1040" stroke="#5644DF" stroke-width="2"/>
<line x1="109" y1="2" x2="109" y2="1040" stroke="#5644DF" stroke-width="2"/>
<line x1="199" y1="2" x2="199" y2="1040" stroke="#5644DF" stroke-width="2"/>
<line x1="289" y1="2" x2="289" y2="1040" stroke="#5644DF" stroke-width="2"/>
<line x1="379" y1="2" x2="379" y2="1040" stroke="#5644DF" stroke-width="2"/>
<line x1="469" y1="2" x2="469" y2="1040" stroke="#5644DF" stroke-width="2"/>
<line y1="-1" x2="527" y2="-1" transform="matrix(1 1.40679e-07 6.34157e-08 -1 1 450)" stroke="#5644DF" stroke-width="2"/>
<line y1="-1" x2="527" y2="-1" transform="matrix(1 1.40679e-07 6.34157e-08 -1 1 360)" stroke="#5644DF" stroke-width="2"/>
<line y1="-1" x2="527" y2="-1" transform="matrix(1 1.40679e-07 6.34157e-08 -1 1 150)" stroke="#5644DF" stroke-width="2"/>
<line y1="-1" x2="527" y2="-1" transform="matrix(1 1.40679e-07 6.34157e-08 -1 1 270)" stroke="#5644DF" stroke-width="2"/>
<line y1="-1" x2="527" y2="-1" transform="matrix(1 1.40679e-07 6.34157e-08 -1 1 60)" stroke="#5644DF" stroke-width="2"/>
<line y1="-1" x2="527" y2="-1" transform="matrix(1 1.40679e-07 6.34157e-08 -1 1 540)" stroke="#5644DF" stroke-width="2"/>
<line y1="-1" x2="527" y2="-1" transform="matrix(1 1.40679e-07 6.34157e-08 -1 1 420)" stroke="#5644DF" stroke-width="2"/>
<line y1="-1" x2="527" y2="-1" transform="matrix(1 1.40679e-07 6.34157e-08 -1 1 330)" stroke="#5644DF" stroke-width="2"/>
<line y1="-1" x2="527" y2="-1" transform="matrix(1 1.40679e-07 6.34157e-08 -1 1 120)" stroke="#5644DF" stroke-width="2"/>
<line y1="-1" x2="527" y2="-1" transform="matrix(1 1.40679e-07 6.34157e-08 -1 1 240)" stroke="#5644DF" stroke-width="2"/>
<line y1="-1" x2="527" y2="-1" transform="matrix(1 1.40679e-07 6.34157e-08 -1 1 30)" stroke="#5644DF" stroke-width="2"/>
<line y1="-1" x2="527" y2="-1" transform="matrix(1 1.40679e-07 6.34157e-08 -1 1 510)" stroke="#5644DF" stroke-width="2"/>
<line y1="-1" x2="527" y2="-1" transform="matrix(1 1.40679e-07 6.34157e-08 -1 1 390)" stroke="#5644DF" stroke-width="2"/>
<line y1="-1" x2="527" y2="-1" transform="matrix(1 1.40679e-07 6.34157e-08 -1 1 180)" stroke="#5644DF" stroke-width="2"/>
<line y1="-1" x2="527" y2="-1" transform="matrix(1 1.40679e-07 6.34157e-08 -1 1 300)" stroke="#5644DF" stroke-width="2"/>
<line y1="-1" x2="527" y2="-1" transform="matrix(1 1.40679e-07 6.34157e-08 -1 1 90)" stroke="#5644DF" stroke-width="2"/>
<line y1="-1" x2="527" y2="-1" transform="matrix(1 1.40679e-07 6.34157e-08 -1 1 210)" stroke="#5644DF" stroke-width="2"/>
<line y1="-1" x2="527" y2="-1" transform="matrix(1 1.40679e-07 6.34157e-08 -1 1 0)" stroke="#5644DF" stroke-width="2"/>
<line y1="-1" x2="527" y2="-1" transform="matrix(1 1.40679e-07 6.34157e-08 -1 1 480)" stroke="#5644DF" stroke-width="2"/>
<line y1="-1" x2="527" y2="-1" transform="matrix(1 1.40679e-07 6.34157e-08 -1 1 570)" stroke="#5644DF" stroke-width="2"/>
</svg>
