<svg width="530" height="671" viewBox="0 0 530 671" fill="none" xmlns="http://www.w3.org/2000/svg">
<line x1="79" y1="2.82566e-08" x2="79" y2="671" stroke="#FFE378" stroke-width="2"/>
<line x1="169" y1="2.82566e-08" x2="169" y2="671" stroke="#FFE378" stroke-width="2"/>
<line x1="259" y1="2.82566e-08" x2="259" y2="671" stroke="#FFE378" stroke-width="2"/>
<line x1="349" y1="2.82566e-08" x2="349" y2="671" stroke="#FFE378" stroke-width="2"/>
<line x1="439" y1="2.82566e-08" x2="439" y2="671" stroke="#FFE378" stroke-width="2"/>
<line x1="529" y1="2.82566e-08" x2="529" y2="671" stroke="#FFE378" stroke-width="2"/>
<line x1="49" y1="2.82566e-08" x2="49" y2="671" stroke="#FFE378" stroke-width="2"/>
<line x1="139" y1="2.82566e-08" x2="139" y2="671" stroke="#FFE378" stroke-width="2"/>
<line x1="229" y1="2.82566e-08" x2="229" y2="671" stroke="#FFE378" stroke-width="2"/>
<line x1="319" y1="2.82566e-08" x2="319" y2="671" stroke="#FFE378" stroke-width="2"/>
<line x1="409" y1="2.82566e-08" x2="409" y2="671" stroke="#FFE378" stroke-width="2"/>
<line x1="499" y1="2.82566e-08" x2="499" y2="671" stroke="#FFE378" stroke-width="2"/>
<line x1="19" y1="2.82566e-08" x2="19" y2="671" stroke="#FFE378" stroke-width="2"/>
<line x1="109" y1="2.82566e-08" x2="109" y2="671" stroke="#FFE378" stroke-width="2"/>
<line x1="199" y1="2.82566e-08" x2="199" y2="671" stroke="#FFE378" stroke-width="2"/>
<line x1="289" y1="2.82566e-08" x2="289" y2="671" stroke="#FFE378" stroke-width="2"/>
<line x1="379" y1="2.82566e-08" x2="379" y2="671" stroke="#FFE378" stroke-width="2"/>
<line x1="469" y1="2.82566e-08" x2="469" y2="671" stroke="#FFE378" stroke-width="2"/>
<line y1="-1" x2="527" y2="-1" transform="matrix(1 1.40679e-07 6.34157e-08 -1 1 81)" stroke="#FFE378" stroke-width="2"/>
<line y1="-1" x2="527" y2="-1" transform="matrix(1 1.40679e-07 6.34157e-08 -1 1 561)" stroke="#FFE378" stroke-width="2"/>
<line y1="-1" x2="527" y2="-1" transform="matrix(1 1.40679e-07 6.34157e-08 -1 1 171)" stroke="#FFE378" stroke-width="2"/>
<line y1="-1" x2="527" y2="-1" transform="matrix(1 1.40679e-07 6.34157e-08 -1 1 651)" stroke="#FFE378" stroke-width="2"/>
<line y1="-1" x2="527" y2="-1" transform="matrix(1 1.40679e-07 6.34157e-08 -1 1 261)" stroke="#FFE378" stroke-width="2"/>
<line y1="-1" x2="527" y2="-1" transform="matrix(1 1.40679e-07 6.34157e-08 -1 1 351)" stroke="#FFE378" stroke-width="2"/>
<line y1="-1" x2="527" y2="-1" transform="matrix(1 1.40679e-07 6.34157e-08 -1 1 441)" stroke="#FFE378" stroke-width="2"/>
<line y1="-1" x2="527" y2="-1" transform="matrix(1 1.40679e-07 6.34157e-08 -1 1 531)" stroke="#FFE378" stroke-width="2"/>
<line y1="-1" x2="527" y2="-1" transform="matrix(1 1.40679e-07 6.34157e-08 -1 1 51)" stroke="#FFE378" stroke-width="2"/>
<line y1="-1" x2="527" y2="-1" transform="matrix(1 1.40679e-07 6.34157e-08 -1 1 141)" stroke="#FFE378" stroke-width="2"/>
<line y1="-1" x2="527" y2="-1" transform="matrix(1 1.40679e-07 6.34157e-08 -1 1 621)" stroke="#FFE378" stroke-width="2"/>
<line y1="-1" x2="527" y2="-1" transform="matrix(1 1.40679e-07 6.34157e-08 -1 1 231)" stroke="#FFE378" stroke-width="2"/>
<line y1="-1" x2="527" y2="-1" transform="matrix(1 1.40679e-07 6.34157e-08 -1 1 321)" stroke="#FFE378" stroke-width="2"/>
<line y1="-1" x2="527" y2="-1" transform="matrix(1 1.40679e-07 6.34157e-08 -1 1 411)" stroke="#FFE378" stroke-width="2"/>
<line y1="-1" x2="527" y2="-1" transform="matrix(1 1.40679e-07 6.34157e-08 -1 1 501)" stroke="#FFE378" stroke-width="2"/>
<line y1="-1" x2="527" y2="-1" transform="matrix(1 1.40679e-07 6.34157e-08 -1 1 21)" stroke="#FFE378" stroke-width="2"/>
<line y1="-1" x2="527" y2="-1" transform="matrix(1 1.40679e-07 6.34157e-08 -1 1 111)" stroke="#FFE378" stroke-width="2"/>
<line y1="-1" x2="527" y2="-1" transform="matrix(1 1.40679e-07 6.34157e-08 -1 1 591)" stroke="#FFE378" stroke-width="2"/>
<line y1="-1" x2="527" y2="-1" transform="matrix(1 1.40679e-07 6.34157e-08 -1 1 201)" stroke="#FFE378" stroke-width="2"/>
<line y1="-1" x2="527" y2="-1" transform="matrix(1 1.40679e-07 6.34157e-08 -1 1 291)" stroke="#FFE378" stroke-width="2"/>
<line y1="-1" x2="527" y2="-1" transform="matrix(1 1.40679e-07 6.34157e-08 -1 1 381)" stroke="#FFE378" stroke-width="2"/>
<line y1="-1" x2="527" y2="-1" transform="matrix(1 1.40679e-07 6.34157e-08 -1 0 471)" stroke="#FFE378" stroke-width="2"/>
</svg>
