<svg width="461" height="438" viewBox="0 0 461 438" fill="none" xmlns="http://www.w3.org/2000/svg">
<rect x="110" y="25" width="346" height="408" fill="white" stroke="black" stroke-width="10"/>
<rect x="90" y="5" width="346" height="408" fill="#2B13E5" stroke="black" stroke-width="10"/>
<rect x="90" y="5" width="346" height="70" fill="white" stroke="black" stroke-width="10"/>
<circle cx="294" cy="40" r="15" fill="#21E3F9" stroke="black" stroke-width="10"/>
<circle cx="344" cy="40" r="15" fill="#FBCC1B" stroke="black" stroke-width="10"/>
<circle cx="394" cy="40" r="15" fill="#EF5452" stroke="black" stroke-width="10"/>
<path d="M295.126 314H37.8739C19.7181 314 5 328.718 5 346.874C5 365.03 19.7181 379.748 37.8739 379.748H47.7133C48.8928 379.748 49.849 380.704 49.849 381.883V407.619C49.849 411.893 54.8627 414.197 58.1054 411.414L92.1901 382.159C94.0032 380.603 96.3136 379.748 98.703 379.748H295.126C313.282 379.748 328 365.03 328 346.874C328 328.718 313.282 314 295.126 314Z" fill="white" stroke="black" stroke-width="10"/>
<path d="M50.032 347.848C50.032 344.8 51.616 343.864 53.704 343.864H54.28V341.608C52.192 341.608 50.776 342.52 50.032 343.984V341.848H47.848V355H50.032V347.848ZM62.5931 343.48C64.8491 343.48 66.7691 344.896 66.7451 347.464H58.4411C58.6811 344.896 60.4571 343.48 62.5931 343.48ZM68.7371 350.944H66.3851C65.9051 352.36 64.6571 353.368 62.6891 353.368C60.4571 353.368 58.5851 351.904 58.4171 349.24H68.9291C68.9771 348.784 69.0011 348.4 69.0011 347.92C69.0011 344.32 66.5051 341.632 62.6891 341.632C58.8491 341.632 56.1851 344.248 56.1851 348.4C56.1851 352.576 58.9451 355.216 62.6891 355.216C65.9531 355.216 68.0651 353.344 68.7371 350.944ZM71.2679 348.376C71.2679 352.456 73.9799 355.216 77.4839 355.216C79.9079 355.216 81.6119 353.968 82.4039 352.552V355H84.6119V341.848H82.4039V344.248C81.6359 342.88 79.9559 341.632 77.5079 341.632C73.9799 341.632 71.2679 344.272 71.2679 348.376ZM82.4039 348.4C82.4039 351.496 80.3399 353.296 77.9399 353.296C75.5399 353.296 73.4999 351.472 73.4999 348.376C73.4999 345.28 75.5399 343.528 77.9399 343.528C80.3399 343.528 82.4039 345.352 82.4039 348.4ZM87.6867 348.4C87.6867 352.576 90.3507 355.216 94.0947 355.216C97.3587 355.216 99.4947 353.392 100.167 350.776H97.8147C97.3347 352.432 96.0387 353.368 94.0947 353.368C91.6947 353.368 89.9187 351.664 89.9187 348.4C89.9187 345.184 91.6947 343.48 94.0947 343.48C96.0387 343.48 97.3587 344.488 97.8147 346.072H100.167C99.4947 343.312 97.3587 341.632 94.0947 341.632C90.3507 341.632 87.6867 344.272 87.6867 348.4ZM103.761 351.4C103.761 354.04 105.081 355 107.409 355H109.377V353.152H107.769C106.425 353.152 105.945 352.696 105.945 351.4V343.648H109.377V341.848H105.945V338.536H103.761V341.848H102.057V343.648H103.761V351.4ZM112.223 355H114.407V341.848H112.223V355ZM113.351 339.712C114.143 339.712 114.791 339.064 114.791 338.224C114.791 337.384 114.143 336.736 113.351 336.736C112.511 336.736 111.863 337.384 111.863 338.224C111.863 339.064 112.511 339.712 113.351 339.712ZM123.921 343.48C126.177 343.48 128.097 344.896 128.073 347.464H119.769C120.009 344.896 121.785 343.48 123.921 343.48ZM130.065 350.944H127.713C127.233 352.36 125.985 353.368 124.017 353.368C121.785 353.368 119.913 351.904 119.745 349.24H130.257C130.305 348.784 130.329 348.4 130.329 347.92C130.329 344.32 127.833 341.632 124.017 341.632C120.177 341.632 117.513 344.248 117.513 348.4C117.513 352.576 120.273 355.216 124.017 355.216C127.281 355.216 129.393 353.344 130.065 350.944ZM138.45 341.848L143.61 355H146.154L151.314 341.848H148.986L144.906 352.984L140.802 341.848H138.45ZM159.256 343.48C161.512 343.48 163.432 344.896 163.408 347.464H155.104C155.344 344.896 157.12 343.48 159.256 343.48ZM165.4 350.944H163.048C162.568 352.36 161.32 353.368 159.352 353.368C157.12 353.368 155.248 351.904 155.08 349.24H165.592C165.64 348.784 165.664 348.4 165.664 347.92C165.664 344.32 163.168 341.632 159.352 341.632C155.512 341.632 152.848 344.248 152.848 348.4C152.848 352.576 155.608 355.216 159.352 355.216C162.616 355.216 164.728 353.344 165.4 350.944ZM170.93 347.848C170.93 344.8 172.514 343.864 174.602 343.864H175.178V341.608C173.09 341.608 171.674 342.52 170.93 343.984V341.848H168.746V355H170.93V347.848ZM180.468 355H182.724L185.892 344.56L189.06 355H191.316L195.42 341.848H193.26L190.284 352.912L187.092 341.848H184.86L181.596 352.888L178.572 341.848H176.34L180.468 355ZM197.787 355H199.971V341.848H197.787V355ZM198.915 339.712C199.707 339.712 200.355 339.064 200.355 338.224C200.355 337.384 199.707 336.736 198.915 336.736C198.075 336.736 197.427 337.384 197.427 338.224C197.427 339.064 198.075 339.712 198.915 339.712ZM205.069 339.712C205.885 339.712 206.533 339.064 206.533 338.224C206.533 337.384 205.885 336.736 205.069 336.736C204.253 336.736 203.605 337.384 203.605 338.224C203.605 339.064 204.253 339.712 205.069 339.712ZM203.965 341.848V357.808C203.965 358.96 203.509 359.392 202.309 359.392H201.397V361.24H202.669C204.901 361.24 206.149 360.232 206.149 357.856V341.848H203.965ZM209.23 348.376C209.23 352.456 211.942 355.216 215.47 355.216C217.87 355.216 219.574 353.992 220.366 352.528V355H222.574V337.24H220.366V344.2C219.454 342.688 217.558 341.632 215.494 341.632C211.942 341.632 209.23 344.272 209.23 348.376ZM220.366 348.4C220.366 351.496 218.302 353.296 215.902 353.296C213.502 353.296 211.462 351.472 211.462 348.376C211.462 345.28 213.502 343.528 215.902 343.528C218.302 343.528 220.366 345.352 220.366 348.4ZM232.057 343.48C234.313 343.48 236.233 344.896 236.209 347.464H227.905C228.145 344.896 229.921 343.48 232.057 343.48ZM238.201 350.944H235.849C235.369 352.36 234.121 353.368 232.153 353.368C229.921 353.368 228.049 351.904 227.881 349.24H238.393C238.441 348.784 238.465 348.4 238.465 347.92C238.465 344.32 235.969 341.632 232.153 341.632C228.313 341.632 225.649 344.248 225.649 348.4C225.649 352.576 228.409 355.216 232.153 355.216C235.417 355.216 237.529 353.344 238.201 350.944ZM243.732 347.848C243.732 344.8 245.316 343.864 247.404 343.864H247.98V341.608C245.892 341.608 244.476 342.52 243.732 343.984V341.848H241.548V355H243.732V347.848ZM256.293 343.48C258.549 343.48 260.469 344.896 260.445 347.464H252.141C252.381 344.896 254.157 343.48 256.293 343.48ZM262.437 350.944H260.085C259.605 352.36 258.357 353.368 256.389 353.368C254.157 353.368 252.285 351.904 252.117 349.24H262.629C262.677 348.784 262.701 348.4 262.701 347.92C262.701 344.32 260.205 341.632 256.389 341.632C252.549 341.632 249.885 344.248 249.885 348.4C249.885 352.576 252.645 355.216 256.389 355.216C259.653 355.216 261.765 353.344 262.437 350.944ZM275.408 355H277.568V347.248C277.568 343.48 275.24 341.608 272.192 341.608C270.416 341.608 268.832 342.352 267.968 343.72V341.848H265.784V355H267.968V347.728C267.968 344.896 269.504 343.504 271.736 343.504C273.944 343.504 275.408 344.872 275.408 347.56V355Z" fill="black"/>
<path d="M225.126 105H77.8739C59.7181 105 45 119.718 45 137.874C45 156.03 59.7181 170.748 77.8739 170.748H87.7133C88.8928 170.748 89.849 171.704 89.849 172.883V198.619C89.849 202.893 94.8627 205.197 98.1054 202.414L133.303 172.204C134.398 171.264 135.793 170.748 137.236 170.748H225.126C243.282 170.748 258 156.03 258 137.874C258 119.718 243.282 105 225.126 105Z" fill="#2B13E5" stroke="black" stroke-width="10"/>
<path d="M96.032 135.296V128.24H93.848V146H96.032V143.576C96.848 145.016 98.552 146.216 100.952 146.216C104.48 146.216 107.192 143.456 107.192 139.376C107.192 135.272 104.504 132.632 100.952 132.632C98.624 132.632 96.872 133.832 96.032 135.296ZM104.96 139.376C104.96 142.472 102.92 144.296 100.496 144.296C98.12 144.296 96.032 142.496 96.032 139.4C96.032 136.352 98.12 134.528 100.496 134.528C102.92 134.528 104.96 136.28 104.96 139.376ZM110.267 146H112.451V128.24H110.267V146ZM128.853 139.4C128.853 135.248 125.949 132.632 122.205 132.632C118.485 132.632 115.557 135.248 115.557 139.4C115.557 143.576 118.389 146.216 122.109 146.216C125.853 146.216 128.853 143.576 128.853 139.4ZM117.789 139.4C117.789 136.088 119.877 134.528 122.181 134.528C124.437 134.528 126.621 136.088 126.621 139.4C126.621 142.736 124.389 144.296 122.109 144.296C119.829 144.296 117.789 142.736 117.789 139.4ZM131.925 146H134.109V140.192L139.269 146H142.245L136.029 139.4L142.221 132.848H139.173L134.109 138.68V128.24H131.925V146ZM144.476 146H146.66V140.192L151.82 146H154.796L148.58 139.4L154.772 132.848H151.724L146.66 138.68V128.24H144.476V146ZM162.62 134.48C164.876 134.48 166.796 135.896 166.772 138.464H158.468C158.708 135.896 160.484 134.48 162.62 134.48ZM168.764 141.944H166.412C165.932 143.36 164.684 144.368 162.716 144.368C160.484 144.368 158.612 142.904 158.444 140.24H168.956C169.004 139.784 169.028 139.4 169.028 138.92C169.028 135.32 166.532 132.632 162.716 132.632C158.876 132.632 156.212 135.248 156.212 139.4C156.212 143.576 158.972 146.216 162.716 146.216C165.98 146.216 168.092 144.344 168.764 141.944ZM174.294 138.848C174.294 135.8 175.878 134.864 177.966 134.864H178.542V132.608C176.454 132.608 175.038 133.52 174.294 134.984V132.848H172.11V146H174.294V138.848ZM186.856 134.48C189.112 134.48 191.032 135.896 191.008 138.464H182.704C182.944 135.896 184.72 134.48 186.856 134.48ZM193 141.944H190.648C190.168 143.36 188.92 144.368 186.952 144.368C184.72 144.368 182.848 142.904 182.68 140.24H193.192C193.24 139.784 193.264 139.4 193.264 138.92C193.264 135.32 190.768 132.632 186.952 132.632C183.112 132.632 180.448 135.248 180.448 139.4C180.448 143.576 183.208 146.216 186.952 146.216C190.216 146.216 192.328 144.344 193 141.944ZM205.97 146H208.13V138.248C208.13 134.48 205.802 132.608 202.754 132.608C200.978 132.608 199.394 133.352 198.53 134.72V132.848H196.346V146H198.53V138.728C198.53 135.896 200.066 134.504 202.298 134.504C204.506 134.504 205.97 135.872 205.97 138.56V146Z" fill="white"/>
<path d="M227.874 209.5H365.126C383.282 209.5 398 224.218 398 242.374C398 260.53 383.282 275.248 365.126 275.248H355.287C354.107 275.248 353.151 276.204 353.151 277.383V303.119C353.151 307.393 348.137 309.697 344.895 306.914L309.559 276.586C308.553 275.722 307.271 275.248 305.946 275.248H227.874C209.718 275.248 195 260.53 195 242.374C195 224.218 209.718 209.5 227.874 209.5Z" fill="white" stroke="black" stroke-width="10"/>
<path d="M246.032 243.348C246.032 240.3 247.616 239.364 249.704 239.364H250.28V237.108C248.192 237.108 246.776 238.02 246.032 239.484V237.348H243.848V250.5H246.032V243.348ZM258.593 238.98C260.849 238.98 262.769 240.396 262.745 242.964H254.441C254.681 240.396 256.457 238.98 258.593 238.98ZM264.737 246.444H262.385C261.905 247.86 260.657 248.868 258.689 248.868C256.457 248.868 254.585 247.404 254.417 244.74H264.929C264.977 244.284 265.001 243.9 265.001 243.42C265.001 239.82 262.505 237.132 258.689 237.132C254.849 237.132 252.185 239.748 252.185 243.9C252.185 248.076 254.945 250.716 258.689 250.716C261.953 250.716 264.065 248.844 264.737 246.444ZM267.268 243.876C267.268 247.956 269.98 250.716 273.484 250.716C275.908 250.716 277.612 249.468 278.404 248.052V250.5H280.612V237.348H278.404V239.748C277.636 238.38 275.956 237.132 273.508 237.132C269.98 237.132 267.268 239.772 267.268 243.876ZM278.404 243.9C278.404 246.996 276.34 248.796 273.94 248.796C271.54 248.796 269.5 246.972 269.5 243.876C269.5 240.78 271.54 239.028 273.94 239.028C276.34 239.028 278.404 240.852 278.404 243.9ZM283.687 243.876C283.687 247.956 286.399 250.716 289.927 250.716C292.327 250.716 294.031 249.444 294.823 248.028V250.788C294.823 253.596 293.071 255.084 290.743 255.084C288.583 255.084 287.023 254.004 286.543 252.42H284.383C284.815 255.228 287.287 256.98 290.743 256.98C294.607 256.98 297.031 254.412 297.031 250.788V237.348H294.823V239.748C294.055 238.332 292.327 237.132 289.927 237.132C286.399 237.132 283.687 239.772 283.687 243.876ZM294.823 243.9C294.823 246.996 292.759 248.796 290.359 248.796C287.959 248.796 285.919 246.972 285.919 243.876C285.919 240.78 287.959 239.028 290.359 239.028C292.759 239.028 294.823 240.852 294.823 243.9ZM306.513 238.98C308.769 238.98 310.689 240.396 310.665 242.964H302.361C302.601 240.396 304.377 238.98 306.513 238.98ZM312.657 246.444H310.305C309.825 247.86 308.577 248.868 306.609 248.868C304.377 248.868 302.505 247.404 302.337 244.74H312.849C312.897 244.284 312.921 243.9 312.921 243.42C312.921 239.82 310.425 237.132 306.609 237.132C302.769 237.132 300.105 239.748 300.105 243.9C300.105 248.076 302.865 250.716 306.609 250.716C309.873 250.716 311.985 248.844 312.657 246.444ZM318.188 243.348C318.188 240.3 319.772 239.364 321.86 239.364H322.436V237.108C320.348 237.108 318.932 238.02 318.188 239.484V237.348H316.004V250.5H318.188V243.348ZM330.749 238.98C333.005 238.98 334.925 240.396 334.901 242.964H326.597C326.837 240.396 328.613 238.98 330.749 238.98ZM336.893 246.444H334.541C334.061 247.86 332.813 248.868 330.845 248.868C328.613 248.868 326.741 247.404 326.573 244.74H337.085C337.133 244.284 337.157 243.9 337.157 243.42C337.157 239.82 334.661 237.132 330.845 237.132C327.005 237.132 324.341 239.748 324.341 243.9C324.341 248.076 327.101 250.716 330.845 250.716C334.109 250.716 336.221 248.844 336.893 246.444ZM349.864 250.5H352.024V242.748C352.024 238.98 349.696 237.108 346.648 237.108C344.872 237.108 343.288 237.852 342.424 239.22V237.348H340.24V250.5H342.424V243.228C342.424 240.396 343.96 239.004 346.192 239.004C348.4 239.004 349.864 240.372 349.864 243.06V250.5Z" fill="black"/>
</svg>
