<svg width="594" height="530" viewBox="0 0 594 530" fill="none" xmlns="http://www.w3.org/2000/svg">
<line x1="-444" y1="451" x2="594" y2="451" stroke="#EC6D6B" stroke-width="2"/>
<line x1="-444" y1="361" x2="594" y2="361" stroke="#EC6D6B" stroke-width="2"/>
<line x1="-444" y1="271" x2="594" y2="271" stroke="#EC6D6B" stroke-width="2"/>
<line x1="-444" y1="181" x2="594" y2="181" stroke="#EC6D6B" stroke-width="2"/>
<line x1="-444" y1="91" x2="594" y2="91" stroke="#EC6D6B" stroke-width="2"/>
<line x1="-444" y1="1" x2="594" y2="1" stroke="#EC6D6B" stroke-width="2"/>
<line x1="-444" y1="481" x2="594" y2="481" stroke="#EC6D6B" stroke-width="2"/>
<line x1="-444" y1="391" x2="594" y2="391" stroke="#EC6D6B" stroke-width="2"/>
<line x1="-444" y1="301" x2="594" y2="301" stroke="#EC6D6B" stroke-width="2"/>
<line x1="-444" y1="211" x2="594" y2="211" stroke="#EC6D6B" stroke-width="2"/>
<line x1="-444" y1="121" x2="594" y2="121" stroke="#EC6D6B" stroke-width="2"/>
<line x1="-444" y1="31" x2="594" y2="31" stroke="#EC6D6B" stroke-width="2"/>
<line x1="-444" y1="511" x2="594" y2="511" stroke="#EC6D6B" stroke-width="2"/>
<line x1="-444" y1="421" x2="594" y2="421" stroke="#EC6D6B" stroke-width="2"/>
<line x1="-444" y1="331" x2="594" y2="331" stroke="#EC6D6B" stroke-width="2"/>
<line x1="-444" y1="241" x2="594" y2="241" stroke="#EC6D6B" stroke-width="2"/>
<line x1="-444" y1="151" x2="594" y2="151" stroke="#EC6D6B" stroke-width="2"/>
<line x1="-444" y1="61" x2="594" y2="61" stroke="#EC6D6B" stroke-width="2"/>
<line y1="-1" x2="527" y2="-1" transform="matrix(9.69681e-08 -1 -1 -1.97043e-08 4 529)" stroke="#EC6D6B" stroke-width="2"/>
<line y1="-1" x2="527" y2="-1" transform="matrix(9.69681e-08 -1 -1 -1.97043e-08 484 529)" stroke="#EC6D6B" stroke-width="2"/>
<line y1="-1" x2="527" y2="-1" transform="matrix(9.69681e-08 -1 -1 -1.97043e-08 94 529)" stroke="#EC6D6B" stroke-width="2"/>
<line y1="-1" x2="527" y2="-1" transform="matrix(9.69681e-08 -1 -1 -1.97043e-08 574 529)" stroke="#EC6D6B" stroke-width="2"/>
<line y1="-1" x2="527" y2="-1" transform="matrix(9.69681e-08 -1 -1 -1.97043e-08 184 529)" stroke="#EC6D6B" stroke-width="2"/>
<line y1="-1" x2="527" y2="-1" transform="matrix(9.69681e-08 -1 -1 -1.97043e-08 274 529)" stroke="#EC6D6B" stroke-width="2"/>
<line y1="-1" x2="527" y2="-1" transform="matrix(9.69681e-08 -1 -1 -1.97043e-08 364 529)" stroke="#EC6D6B" stroke-width="2"/>
<line y1="-1" x2="527" y2="-1" transform="matrix(9.69681e-08 -1 -1 -1.97043e-08 454 529)" stroke="#EC6D6B" stroke-width="2"/>
<line y1="-1" x2="527" y2="-1" transform="matrix(9.69681e-08 -1 -1 -1.97043e-08 64 529)" stroke="#EC6D6B" stroke-width="2"/>
<line y1="-1" x2="527" y2="-1" transform="matrix(9.69681e-08 -1 -1 -1.97043e-08 544 529)" stroke="#EC6D6B" stroke-width="2"/>
<line y1="-1" x2="527" y2="-1" transform="matrix(9.69681e-08 -1 -1 -1.97043e-08 154 529)" stroke="#EC6D6B" stroke-width="2"/>
<line y1="-1" x2="527" y2="-1" transform="matrix(9.69681e-08 -1 -1 -1.97043e-08 244 529)" stroke="#EC6D6B" stroke-width="2"/>
<line y1="-1" x2="527" y2="-1" transform="matrix(9.69681e-08 -1 -1 -1.97043e-08 334 529)" stroke="#EC6D6B" stroke-width="2"/>
<line y1="-1" x2="527" y2="-1" transform="matrix(9.69681e-08 -1 -1 -1.97043e-08 424 529)" stroke="#EC6D6B" stroke-width="2"/>
<line y1="-1" x2="527" y2="-1" transform="matrix(9.69681e-08 -1 -1 -1.97043e-08 34 529)" stroke="#EC6D6B" stroke-width="2"/>
<line y1="-1" x2="527" y2="-1" transform="matrix(9.69681e-08 -1 -1 -1.97043e-08 514 529)" stroke="#EC6D6B" stroke-width="2"/>
<line y1="-1" x2="527" y2="-1" transform="matrix(9.69681e-08 -1 -1 -1.97043e-08 124 529)" stroke="#EC6D6B" stroke-width="2"/>
<line y1="-1" x2="527" y2="-1" transform="matrix(9.69681e-08 -1 -1 -1.97043e-08 214 529)" stroke="#EC6D6B" stroke-width="2"/>
<line y1="-1" x2="527" y2="-1" transform="matrix(9.69681e-08 -1 -1 -1.97043e-08 304 529)" stroke="#EC6D6B" stroke-width="2"/>
<line y1="-1" x2="527" y2="-1" transform="matrix(9.69681e-08 -1 -1 -1.97043e-08 394 530)" stroke="#EC6D6B" stroke-width="2"/>
</svg>
