<svg width="89" height="50" viewBox="0 0 89 50" fill="none" xmlns="http://www.w3.org/2000/svg">
<path d="M10.1975 15.6507V17.8356H0V0.312012H10.1975V2.54147H12.2287V6.9558H10.1975V9.09609H12.2287V15.6507H10.1975ZM8.12484 2.58606H4.10387V6.91121H8.12484V2.58606ZM8.12484 9.14067H4.10387V15.6507H8.12484V9.14067Z" fill="white"/>
<path d="M26.447 15.6506V17.8355H18.2807V15.6506H16.2495V4.68164H20.3534V15.606H24.3744V4.68164H28.4782V15.6506H26.447Z" fill="white"/>
<path d="M34.5307 17.8356V15.6507H32.4995V6.86663H34.5307V4.68175H40.6244V0.312012H44.7282V17.8356H34.5307ZM40.6244 6.91121H36.6034V15.6061H40.6244V6.91121Z" fill="white"/>
<path d="M50.8217 17.8356V15.6507H48.7905V6.86663H50.8217V4.68175H56.9154V0.312012H61.0192V17.8356H50.8217ZM56.9154 6.91121H52.8944V15.6061H56.9154V6.91121Z" fill="white"/>
<path d="M73.2063 9.09597V13.4657H71.1751V20.0203H69.1439V22.2052H65.04V17.7909H69.1024V15.6506H67.0712V13.4657H65.04V9.05138H63.0088V4.68164H67.1127V9.05138H69.1439V13.4211H71.1751V4.68164H75.279V9.09597H73.2063Z" fill="white"/>
<path d="M51.8995 27.824V29.2955H46.5106V27.824H45.1841V22.0274H46.5106V20.6006H51.8995V22.0274H53.226V27.824H51.8995ZM50.5316 22.072H47.8785V27.824H50.5316V22.072Z" fill="white"/>
<path d="M58.6149 23.4984V29.295H55.9204V20.6001H58.6149V22.027H59.9414V20.6001H61.3093V23.4984H58.6149Z" fill="white"/>
<path d="M40.2512 43.2962V45.4811H30.0537V27.9575H40.2512V30.187H42.2824V34.6013H40.2512V36.7416H42.2824V43.2962H40.2512ZM38.1786 30.2316H34.1576V34.5567H38.1786V30.2316ZM38.1786 36.7862H34.1576V43.2962H38.1786V36.7862Z" fill="white"/>
<path d="M56.5012 43.2961V45.481H48.3349V43.2961H46.3037V32.3271H50.4076V43.2515H54.4286V32.3271H58.5324V43.2961H56.5012Z" fill="white"/>
<path d="M62.5527 45.4811V27.9575H66.6566V45.4811H62.5527Z" fill="white"/>
<path d="M70.6777 45.4811V27.9575H74.7816V45.4811H70.6777Z" fill="white"/>
<path d="M86.9689 36.7416V41.1114H84.9377V47.666H82.9065V49.8509H78.7612V45.4365H82.8236V43.2963H80.7924V41.1114H78.7612V36.697H76.73V32.2827H80.8339V36.6525H82.8651V41.0222H84.8963V32.3273H89.0002V36.7416H86.9689Z" fill="white"/>
</svg>
