<svg width="89" height="47" viewBox="0 0 89 47" fill="none" xmlns="http://www.w3.org/2000/svg">
<path d="M10.1975 14.2599V16.2911H0V0H10.1975V2.07266H12.2287V6.17654H10.1975V8.16629H12.2287V14.2599H10.1975ZM8.12484 2.11412H4.10387V6.13508H8.12484V2.11412ZM8.12484 8.20775H4.10387V14.2599H8.12484V8.20775Z" fill="white"/>
<path d="M26.447 14.26V16.2912H18.2807V14.26H16.2495V4.0625H20.3534V14.2185H24.3744V4.0625H28.4782V14.26H26.447Z" fill="white"/>
<path d="M34.5307 16.2911V14.2599H32.4995V6.09363H34.5307V4.06242H40.6244V0H44.7282V16.2911H34.5307ZM40.6244 6.13508H36.6034V14.2185H40.6244V6.13508Z" fill="white"/>
<path d="M50.8217 16.2911V14.2599H48.7905V6.09363H50.8217V4.06242H56.9154V0H61.0192V16.2911H50.8217ZM56.9154 6.13508H52.8944V14.2185H56.9154V6.13508Z" fill="white"/>
<path d="M73.2063 8.16637V12.2288H71.1751V18.3224H69.1439V20.3536H65.04V16.2498H69.1024V14.26H67.0712V12.2288H65.04V8.12492H63.0088V4.0625H67.1127V8.12492H69.1439V12.1873H71.1751V4.0625H75.279V8.16637H73.2063Z" fill="white"/>
<path d="M51.8995 25.5768V26.9447H46.5106V25.5768H45.1841V20.1878H46.5106V18.8613H51.8995V20.1878H53.226V25.5768H51.8995ZM50.5316 20.2293H47.8785V25.5768H50.5316V20.2293Z" fill="white"/>
<path d="M58.6149 21.5553V26.9442H55.9204V18.8608H58.6149V20.1873H59.9414V18.8608H61.3093V21.5553H58.6149Z" fill="white"/>
<path d="M40.2512 39.9611V41.9923H30.0537V25.7012H40.2512V27.7738H42.2824V31.8777H40.2512V33.8675H42.2824V39.9611H40.2512ZM38.1785 27.8153H34.1576V31.8363H38.1785V27.8153ZM38.1785 33.9089H34.1576V39.9611H38.1785V33.9089Z" fill="white"/>
<path d="M56.5012 39.9612V41.9924H48.3349V39.9612H46.3037V29.7637H50.4076V39.9197H54.4286V29.7637H58.5324V39.9612H56.5012Z" fill="white"/>
<path d="M62.5527 41.9923V25.7012H66.6566V41.9923H62.5527Z" fill="white"/>
<path d="M70.6777 41.9923V25.7012H74.7816V41.9923H70.6777Z" fill="white"/>
<path d="M86.9689 33.8675V37.9299H84.9377V44.0235H82.9065V46.0548H78.7612V41.9509H82.8236V39.9611H80.7924V37.9299H78.7612V33.826H76.73V29.7222H80.8339V33.7846H82.8651V37.847H84.8963V29.7636H89.0001V33.8675H86.9689Z" fill="white"/>
</svg>
