<svg width="137" height="129" viewBox="0 0 137 129" fill="none" xmlns="http://www.w3.org/2000/svg">
<path d="M81.1805 97.764L79.18 97.228L77.3864 98.2635L59.4021 108.647C57.5936 109.691 55.3008 109.077 54.2567 107.268L54.253 107.262L54.2492 107.255L43.781 89.2481L42.7445 87.4651L40.7525 86.9314L26.9934 83.2446C17.94 80.8188 12.5593 71.4991 14.9851 62.4457L25.6812 22.5273C28.1071 13.4739 37.4267 8.0932 46.4801 10.519L114.426 28.7252C123.48 31.151 128.86 40.4707 126.435 49.5241L115.739 89.4425C113.313 98.4959 103.993 103.877 94.9396 101.451L81.1805 97.764Z" fill="#FBCC1B" stroke="black" stroke-width="10"/>
<path d="M96.0873 57.4586L96.0954 57.4299C98.0528 50.4589 94.8447 44.4928 89.1083 42.8799L96.0873 57.4586ZM96.0873 57.4586L96.0796 57.4875M96.0873 57.4586L96.0796 57.4875M96.0796 57.4875C94.2592 64.2813 84.5528 76.8852 64.8008 77.6736C48.2945 67.0711 46.1665 51.3913 47.986 44.6008C49.8479 37.6518 55.5584 33.9819 61.5175 35.4874C65.269 36.4978 67.7644 38.14 69.2794 39.4414C70.0448 40.0989 70.5672 40.6761 70.8745 41.0505C71.0279 41.2374 71.1266 41.3724 71.174 41.4396C71.1833 41.4527 71.1905 41.4632 71.1959 41.471M96.0796 57.4875L71.1959 41.471M71.1959 41.471L73.6735 45.518L77.8142 43.2025C77.8225 43.1984 77.8337 43.193 77.8479 43.1863C77.922 43.151 78.0742 43.0818 78.2993 42.9946C78.7506 42.8199 79.4871 42.5759 80.4708 42.3858C82.4207 42.0091 85.3833 41.8346 89.1069 42.8796L71.1959 41.471Z" fill="#EF5452" stroke="black" stroke-width="10"/>
</svg>
