<svg width="115" height="103" viewBox="0 0 115 103" fill="none" xmlns="http://www.w3.org/2000/svg">
<path d="M78.0809 80.2911H76.0098L74.5454 81.7555L59.8612 96.4397C58.3846 97.9163 56.0109 97.9163 54.5343 96.4397L54.529 96.4344L54.5237 96.4291L39.7517 81.745L38.289 80.2911H36.2267H21.9822C12.6095 80.2911 5 72.6816 5 63.3088V21.9822C5 12.6095 12.6095 5 21.9822 5H92.3254C101.698 5 109.308 12.6095 109.308 21.9822V63.3088C109.308 72.6816 101.698 80.2911 92.3254 80.2911H78.0809Z" fill="#FBCC1B" stroke="black" stroke-width="10"/>
<path d="M62.6931 62.3082C67.5959 58.6336 74.671 52.8808 77.6194 48.2799C79.8255 44.8426 80.5433 40.5841 79.5838 36.6246C77.5336 27.6053 66.1808 23.9198 59.1092 29.964C58.7115 30.3017 58.3449 30.676 57.9685 31.0604C57.815 31.2173 57.6597 31.3758 57.5 31.5343C57.3403 31.3758 57.185 31.2173 57.0315 31.0604C56.6552 30.676 56.2885 30.3017 55.8908 29.964C48.8192 23.9198 37.4664 27.6053 35.4162 36.6246C34.4567 40.5841 35.1744 44.8426 37.3806 48.2799C40.3289 52.8808 47.4041 58.6336 52.3069 62.3082C53.673 63.3324 57.5 66 57.5 66C57.5 66 61.327 63.3324 62.6931 62.3082Z" fill="#EF5452" stroke="black" stroke-width="10"/>
</svg>
