<svg width="137" height="137" viewBox="0 0 137 137" fill="none" xmlns="http://www.w3.org/2000/svg">
<path fill-rule="evenodd" clip-rule="evenodd" d="M90.9711 29.5C83.7968 25.3579 74.6229 27.816 70.4808 34.9904L62.9808 47.9808L49.9904 40.4808C42.816 36.3386 33.6421 38.7967 29.5 45.9711C25.3579 53.1455 27.816 62.3194 34.9904 66.4615L47.9808 73.9615L40.4808 86.9519C36.3386 94.1263 38.7968 103.3 45.9711 107.442C53.1455 111.584 62.3194 109.126 66.4615 101.952L73.9615 88.9615L86.9519 96.4615C94.1263 100.604 103.3 98.1455 107.442 90.9711C111.584 83.7968 109.126 74.6229 101.952 70.4808L88.9615 62.9808L96.4615 49.9904C100.604 42.816 98.1455 33.6421 90.9711 29.5Z" fill="#2B13E5"/>
<path d="M62.9808 47.9808L60.4808 52.3109L64.8109 54.8109L67.3109 50.4808L62.9808 47.9808ZM47.9808 73.9615L52.3109 76.4615L54.8109 72.1314L50.4808 69.6314L47.9808 73.9615ZM73.9615 88.9615L76.4615 84.6314L72.1314 82.1314L69.6314 86.4615L73.9615 88.9615ZM88.9615 62.9808L84.6314 60.4808L82.1314 64.8109L86.4615 67.3109L88.9615 62.9808ZM74.8109 37.4904C77.5723 32.7075 83.6882 31.0687 88.4711 33.8301L93.4711 25.1699C83.9053 19.647 71.6735 22.9245 66.1506 32.4904L74.8109 37.4904ZM67.3109 50.4808L74.8109 37.4904L66.1506 32.4904L58.6506 45.4808L67.3109 50.4808ZM47.4904 44.8109L60.4808 52.3109L65.4808 43.6506L52.4904 36.1506L47.4904 44.8109ZM33.8301 48.4711C36.5916 43.6882 42.7075 42.0495 47.4904 44.8109L52.4904 36.1506C42.9245 30.6278 30.6927 33.9053 25.1699 43.4711L33.8301 48.4711ZM37.4904 62.1314C32.7075 59.37 31.0687 53.2541 33.8301 48.4711L25.1699 43.4711C19.647 53.037 22.9245 65.2688 32.4904 70.7917L37.4904 62.1314ZM50.4808 69.6314L37.4904 62.1314L32.4904 70.7917L45.4808 78.2917L50.4808 69.6314ZM44.8109 89.4519L52.3109 76.4615L43.6506 71.4615L36.1506 84.4519L44.8109 89.4519ZM48.4711 103.112C43.6882 100.351 42.0495 94.2348 44.8109 89.4519L36.1506 84.4519C30.6278 94.0178 33.9053 106.25 43.4711 111.772L48.4711 103.112ZM62.1314 99.4519C59.37 104.235 53.2541 105.874 48.4711 103.112L43.4711 111.772C53.037 117.295 65.2688 114.018 70.7917 104.452L62.1314 99.4519ZM69.6314 86.4615L62.1314 99.4519L70.7917 104.452L78.2917 91.4615L69.6314 86.4615ZM89.4519 92.1314L76.4615 84.6314L71.4615 93.2917L84.4519 100.792L89.4519 92.1314ZM103.112 88.4711C100.351 93.2541 94.2348 94.8928 89.4519 92.1314L84.4519 100.792C94.0178 106.314 106.25 103.037 111.772 93.4711L103.112 88.4711ZM99.4519 74.8109C104.235 77.5723 105.874 83.6882 103.112 88.4711L111.772 93.4711C117.295 83.9053 114.018 71.6735 104.452 66.1506L99.4519 74.8109ZM86.4615 67.3109L99.4519 74.8109L104.452 66.1506L91.4615 58.6506L86.4615 67.3109ZM92.1314 47.4904L84.6314 60.4808L93.2917 65.4808L100.792 52.4904L92.1314 47.4904ZM88.4711 33.8301C93.2541 36.5916 94.8928 42.7075 92.1314 47.4904L100.792 52.4904C106.314 42.9245 103.037 30.6927 93.4711 25.1699L88.4711 33.8301Z" fill="black"/>
</svg>
