<svg width="121" height="121" viewBox="0 0 121 121" fill="none" xmlns="http://www.w3.org/2000/svg">
<path fill-rule="evenodd" clip-rule="evenodd" d="M79.8823 26.5287C73.6554 22.9336 65.693 25.0671 62.0979 31.294L55.5883 42.5689L44.3134 36.0593C38.0865 32.4642 30.1241 34.5977 26.529 40.8246C22.9339 47.0515 25.0674 55.0139 31.2943 58.609L42.5692 65.1186L36.0597 76.3935C32.4646 82.6204 34.5981 90.5827 40.825 94.1779C47.0519 97.773 55.0143 95.6395 58.6094 89.4125L65.119 78.1377L76.3938 84.6472C82.6207 88.2423 90.583 86.1088 94.1782 79.8819C97.7733 73.6549 95.6398 65.6926 89.4128 62.0975L78.1381 55.588L84.6476 44.3131C88.2427 38.0862 86.1092 30.1238 79.8823 26.5287Z" fill="#EF5452"/>
<path d="M55.5883 42.5689L53.0883 46.899L57.4185 49.399L59.9185 45.0689L55.5883 42.5689ZM44.3134 36.0593L46.8134 31.7292L46.8134 31.7292L44.3134 36.0593ZM42.5692 65.1186L46.8994 67.6186L49.3994 63.2885L45.0692 60.7885L42.5692 65.1186ZM65.119 78.1377L67.619 73.8076L63.2888 71.3076L60.7888 75.6377L65.119 78.1377ZM76.3938 84.6472L78.8938 80.3171L76.3938 84.6472ZM78.1381 55.588L73.8079 53.088L71.3079 57.4181L75.6381 59.9181L78.1381 55.588ZM66.428 33.794C68.6424 29.9585 73.5468 28.6444 77.3823 30.8588L82.3823 22.1986C73.7639 17.2227 62.7436 20.1756 57.7677 28.794L66.428 33.794ZM59.9185 45.0689L66.428 33.794L57.7677 28.794L51.2582 40.0689L59.9185 45.0689ZM41.8134 40.3894L53.0883 46.899L58.0883 38.2387L46.8134 31.7292L41.8134 40.3894ZM30.8591 43.3246C33.0735 39.4891 37.9779 38.175 41.8134 40.3894L46.8134 31.7292C38.195 26.7533 27.1747 29.7062 22.1989 38.3246L30.8591 43.3246ZM33.7943 54.2789C29.9588 52.0645 28.6447 47.1601 30.8591 43.3246L22.1989 38.3246C17.223 46.943 20.1759 57.9633 28.7943 62.9391L33.7943 54.2789ZM45.0692 60.7885L33.7943 54.2789L28.7943 62.9391L40.0692 69.4487L45.0692 60.7885ZM40.3898 78.8935L46.8994 67.6186L38.2391 62.6186L31.7296 73.8935L40.3898 78.8935ZM43.325 89.8477C39.4895 87.6333 38.1754 82.7289 40.3898 78.8935L31.7296 73.8935C26.7537 82.5119 29.7066 93.5322 38.325 98.508L43.325 89.8477ZM54.2793 86.9125C52.0649 90.748 47.1605 92.0622 43.325 89.8477L38.325 98.508C46.9434 103.484 57.9637 100.531 62.9396 91.9125L54.2793 86.9125ZM60.7888 75.6377L54.2793 86.9125L62.9396 91.9125L69.4491 80.6377L60.7888 75.6377ZM78.8938 80.3171L67.619 73.8076L62.619 82.4678L73.8938 88.9773L78.8938 80.3171ZM89.848 77.3819C87.6336 81.2174 82.7292 82.5315 78.8938 80.3171L73.8938 88.9773C82.5121 93.9532 93.5325 91.0003 98.5083 82.3819L89.848 77.3819ZM86.9128 66.4276C90.7483 68.642 92.0624 73.5464 89.848 77.3819L98.5083 82.3819C103.484 73.7635 100.531 62.7432 91.9128 57.7673L86.9128 66.4276ZM75.6381 59.9181L86.9128 66.4276L91.9128 57.7673L80.6381 51.2578L75.6381 59.9181ZM80.3175 41.8131L73.8079 53.088L82.4682 58.088L88.9777 46.8131L80.3175 41.8131ZM77.3823 30.8588C81.2178 33.0732 82.5319 37.9776 80.3175 41.8131L88.9777 46.8131C93.9536 38.1947 91.0007 27.1744 82.3823 22.1986L77.3823 30.8588Z" fill="black"/>
</svg>
