<svg width="109" height="109" viewBox="0 0 109 109" fill="none" xmlns="http://www.w3.org/2000/svg">
<path fill-rule="evenodd" clip-rule="evenodd" d="M44.7265 17.1087C37.7813 18.9697 33.6597 26.1086 35.5206 33.0538L38.8902 45.6293L26.3147 48.9989C19.3694 50.8599 15.2478 57.9987 17.1088 64.944C18.9697 71.8892 26.1086 76.0108 33.0538 74.1499L45.6294 70.7802L48.999 83.3557C50.86 90.301 57.9988 94.4226 64.9441 92.5616C71.8893 90.7006 76.0109 83.5618 74.1499 76.6165L70.7804 64.0411L83.3557 60.6715C90.301 58.8105 94.4226 51.6717 92.5616 44.7264C90.7007 37.7812 83.5618 33.6596 76.6166 35.5205L64.0412 38.8901L60.6716 26.3146C58.8106 19.3694 51.6718 15.2478 44.7265 17.1087Z" fill="#FBCC1B"/>
<path d="M38.8902 45.6293L40.1843 50.4589L45.0139 49.1648L43.7199 44.3352L38.8902 45.6293ZM26.3147 48.9989L25.0206 44.1693L25.0206 44.1693L26.3147 48.9989ZM45.6294 70.7802L50.459 69.4861L49.1649 64.6565L44.3353 65.9506L45.6294 70.7802ZM74.1499 76.6165L69.3203 77.9106L74.1499 76.6165ZM70.7804 64.0411L69.4863 59.2114L64.6566 60.5055L65.9507 65.3352L70.7804 64.0411ZM83.3557 60.6715L82.0616 55.8419L83.3557 60.6715ZM76.6166 35.5205L75.3225 30.6909L76.6166 35.5205ZM64.0412 38.8901L59.2115 40.1842L60.5056 45.0138L65.3353 43.7197L64.0412 38.8901ZM40.3503 31.7597C39.204 27.4818 41.7427 23.0846 46.0206 21.9384L43.4324 12.2791C33.8198 14.8548 28.1153 24.7353 30.691 34.3479L40.3503 31.7597ZM43.7199 44.3352L40.3503 31.7597L30.691 34.3479L34.0606 46.9234L43.7199 44.3352ZM27.6088 53.8285L40.1843 50.4589L37.5961 40.7997L25.0206 44.1693L27.6088 53.8285ZM21.9384 63.6499C20.7921 59.372 23.3308 54.9748 27.6088 53.8285L25.0206 44.1693C15.408 46.7449 9.70346 56.6255 12.2791 66.2381L21.9384 63.6499ZM31.7597 69.3202C27.4818 70.4665 23.0847 67.9278 21.9384 63.6499L12.2791 66.2381C14.8548 75.8506 24.7354 81.5552 34.3479 78.9795L31.7597 69.3202ZM44.3353 65.9506L31.7597 69.3202L34.3479 78.9795L46.9235 75.6099L44.3353 65.9506ZM53.8286 82.0616L50.459 69.4861L40.7998 72.0743L44.1694 84.6498L53.8286 82.0616ZM63.65 87.732C59.372 88.8782 54.9749 86.3395 53.8286 82.0616L44.1694 84.6498C46.745 94.2624 56.6256 99.9669 66.2382 97.3912L63.65 87.732ZM69.3203 77.9106C70.4666 82.1885 67.9279 86.5857 63.65 87.732L66.2382 97.3912C75.8507 94.8155 81.5553 84.935 78.9796 75.3224L69.3203 77.9106ZM65.9507 65.3352L69.3203 77.9106L78.9796 75.3224L75.61 62.747L65.9507 65.3352ZM82.0616 55.8419L69.4863 59.2114L72.0745 68.8707L84.6498 65.5011L82.0616 55.8419ZM87.732 46.0205C88.8783 50.2984 86.3396 54.6956 82.0616 55.8419L84.6498 65.5011C94.2624 62.9254 99.9669 53.0449 97.3913 43.4323L87.732 46.0205ZM77.9107 40.3502C82.1886 39.2039 86.5857 41.7426 87.732 46.0205L97.3913 43.4323C94.8156 33.8198 84.935 28.1152 75.3225 30.6909L77.9107 40.3502ZM65.3353 43.7197L77.9107 40.3502L75.3225 30.6909L62.7471 34.0605L65.3353 43.7197ZM55.842 27.6087L59.2115 40.1842L68.8708 37.596L65.5012 25.0205L55.842 27.6087ZM46.0206 21.9384C50.2985 20.7921 54.6957 23.3308 55.842 27.6087L65.5012 25.0205C62.9255 15.408 53.045 9.70343 43.4324 12.2791L46.0206 21.9384Z" fill="black"/>
</svg>
