<svg width="218" height="218" viewBox="0 0 218 218" fill="none" xmlns="http://www.w3.org/2000/svg">
<path d="M139.105 37.5091C99.6953 20.8092 54.2094 39.2191 37.5094 78.6289C20.8095 118.039 39.2194 163.525 78.6291 180.224C118.039 196.924 163.525 178.514 180.225 139.105C196.925 99.695 178.515 54.2091 139.105 37.5091Z" fill="#EF5452" stroke="black" stroke-width="10"/>
<path fill-rule="evenodd" clip-rule="evenodd" d="M121.825 97.9002C128.31 104.991 128.791 108.411 128.791 108.411L117.639 134.728C114.288 142.636 105.677 138.666 105.677 138.666L76.3606 126.243C73.7699 125.145 72.203 122.39 72.5613 119.647L76.4492 90.7349C77.1287 85.7151 82.2502 82.7385 86.8863 84.7031L96.8401 88.921C92.0287 72.5675 103.712 62.0776 110.885 66.4041C114.336 68.5096 114.271 71.699 114.074 75.9583C113.582 83.9525 116.337 91.875 121.825 97.9002ZM126.907 147.018L120.225 144.187C117.089 142.858 115.675 139.364 117.004 136.228L128.444 109.229C129.773 106.093 133.268 104.679 136.404 106.008L143.085 108.839C146.221 110.168 147.636 113.662 146.307 116.799L134.866 143.797C133.537 146.933 130.043 148.347 126.907 147.018Z" fill="white"/>
<path d="M128.791 108.411L133.395 110.362L133.935 109.087L133.742 107.716L128.791 108.411ZM121.825 97.9002L118.129 101.267L118.136 101.275L121.825 97.9002ZM117.639 134.728L113.036 132.777L117.639 134.728ZM105.677 138.666L107.771 134.125L107.7 134.092L107.628 134.062L105.677 138.666ZM72.5613 119.647L67.6059 118.98L67.6046 118.99L67.6034 118.999L72.5613 119.647ZM76.4492 90.7349L71.4943 90.0641L71.4938 90.0685L76.4492 90.7349ZM96.8401 88.921L94.8893 93.5248L104.62 97.648L101.637 87.5098L96.8401 88.921ZM110.885 66.4041L113.49 62.136L113.479 62.1293L113.467 62.1226L110.885 66.4041ZM114.074 75.9583L119.065 76.2657L119.067 76.2273L119.069 76.1888L114.074 75.9583ZM120.225 144.187L122.176 139.583L120.225 144.187ZM126.907 147.018L124.956 151.622L126.907 147.018ZM146.307 116.799L150.911 118.749L146.307 116.799ZM134.866 143.797L130.263 141.846L134.866 143.797ZM128.791 108.411C133.742 107.716 133.742 107.712 133.741 107.708C133.741 107.707 133.74 107.703 133.74 107.7C133.739 107.695 133.739 107.69 133.738 107.684C133.736 107.674 133.735 107.663 133.733 107.652C133.73 107.63 133.726 107.608 133.722 107.585C133.714 107.538 133.706 107.488 133.696 107.435C133.675 107.33 133.65 107.212 133.619 107.082C133.557 106.822 133.47 106.515 133.349 106.16C133.108 105.449 132.733 104.55 132.15 103.458C130.985 101.279 128.981 98.3151 125.515 94.5258L118.136 101.275C121.155 104.576 122.633 106.867 123.33 108.172C123.678 108.821 123.828 109.22 123.88 109.372C123.905 109.449 123.907 109.464 123.896 109.419C123.891 109.396 123.882 109.359 123.872 109.307C123.867 109.281 123.862 109.251 123.856 109.218C123.854 109.201 123.851 109.184 123.848 109.165C123.847 109.156 123.845 109.146 123.844 109.137C123.843 109.132 123.842 109.127 123.842 109.122C123.841 109.12 123.841 109.116 123.841 109.115C123.84 109.111 123.84 109.107 128.791 108.411ZM122.243 136.679L133.395 110.362L124.187 106.46L113.036 132.777L122.243 136.679ZM105.677 138.666C103.583 143.206 103.585 143.207 103.587 143.208C103.588 143.208 103.59 143.209 103.592 143.21C103.595 143.211 103.598 143.213 103.601 143.214C103.607 143.217 103.614 143.22 103.622 143.224C103.637 143.231 103.655 143.239 103.675 143.247C103.714 143.265 103.762 143.286 103.819 143.31C103.932 143.358 104.079 143.419 104.258 143.487C104.613 143.624 105.099 143.796 105.685 143.966C106.832 144.297 108.497 144.659 110.393 144.662C112.299 144.665 114.62 144.304 116.861 143.007C119.164 141.674 121.022 139.559 122.243 136.679L113.036 132.777C112.581 133.85 112.105 134.205 111.852 134.352C111.536 134.535 111.076 134.663 110.409 134.662C109.734 134.661 109.036 134.525 108.464 134.359C108.191 134.28 107.978 134.204 107.849 134.154C107.785 134.13 107.745 134.113 107.73 134.107C107.723 134.103 107.722 134.103 107.729 134.106C107.732 134.108 107.737 134.11 107.744 134.113C107.748 134.115 107.752 134.116 107.756 134.118C107.758 134.119 107.76 134.12 107.763 134.122C107.764 134.122 107.766 134.123 107.767 134.123C107.769 134.124 107.771 134.125 105.677 138.666ZM74.4098 130.847L103.726 143.269L107.628 134.062L78.3115 121.639L74.4098 130.847ZM67.6034 118.999C66.9533 123.977 69.7582 128.875 74.4098 130.847L78.3115 121.639C77.7816 121.415 77.4528 120.803 77.5192 120.294L67.6034 118.999ZM71.4938 90.0685L67.6059 118.98L77.5167 120.313L81.4046 91.4012L71.4938 90.0685ZM88.8371 80.0993C81.0936 76.818 72.6057 81.855 71.4943 90.0641L81.404 91.4056C81.6518 89.5752 83.4068 88.659 84.9354 89.3068L88.8371 80.0993ZM98.791 84.3173L88.8371 80.0993L84.9354 89.3068L94.8893 93.5248L98.791 84.3173ZM113.467 62.1226C106.873 58.145 99.5068 61.5967 95.4248 66.8337C91.1089 72.3706 89.2359 80.7899 92.0434 90.3323L101.637 87.5098C99.6329 80.6987 101.196 75.6962 103.312 72.9814C105.662 69.9667 107.724 70.3367 108.303 70.6857L113.467 62.1226ZM119.069 76.1888C119.16 74.2212 119.297 71.6046 118.704 69.1829C118.012 66.3632 116.391 63.9064 113.49 62.136L108.281 70.6723C108.643 70.8936 108.767 71.0495 108.808 71.1066C108.85 71.1652 108.922 71.2825 108.991 71.5641C109.179 72.3283 109.185 73.4361 109.08 75.7279L119.069 76.1888ZM125.522 94.533C120.945 89.5095 118.655 82.9133 119.065 76.2657L109.084 75.6509C108.508 84.9916 111.728 94.2406 118.129 101.267L125.522 94.533ZM118.275 148.791L124.956 151.622L128.858 142.415L122.176 139.583L118.275 148.791ZM112.4 134.277C109.994 139.955 112.596 146.384 118.275 148.791L122.176 139.583C121.838 139.44 121.661 139.221 121.575 139.009C121.489 138.797 121.464 138.516 121.608 138.178L112.4 134.277ZM123.841 107.279L112.4 134.277L121.608 138.178L133.048 111.18L123.841 107.279ZM138.355 101.404C132.676 98.9978 126.247 101.6 123.841 107.279L133.048 111.18C133.191 110.843 133.41 110.665 133.622 110.579C133.834 110.493 134.115 110.468 134.453 110.612L138.355 101.404ZM145.036 104.235L138.355 101.404L134.453 110.612L141.134 113.443L145.036 104.235ZM150.911 118.749C153.317 113.071 150.715 106.642 145.036 104.235L141.134 113.443C141.472 113.586 141.65 113.805 141.736 114.017C141.821 114.229 141.846 114.51 141.703 114.848L150.911 118.749ZM139.47 145.748L150.911 118.749L141.703 114.848L130.263 141.846L139.47 145.748ZM124.956 151.622C130.635 154.028 137.064 151.426 139.47 145.748L130.263 141.846C130.119 142.184 129.9 142.361 129.688 142.447C129.476 142.533 129.195 142.558 128.858 142.415L124.956 151.622Z" fill="black"/>
</svg>
