<svg width="203" height="203" viewBox="0 0 203 203" fill="none" xmlns="http://www.w3.org/2000/svg">
<path d="M121.976 176.777C163.32 165.699 187.855 123.203 176.777 81.8592C165.699 40.5156 123.203 15.9805 81.8593 27.0585C40.5156 38.1365 15.9805 80.6326 27.0585 121.976C38.1365 163.32 80.6326 187.855 121.976 176.777Z" fill="#21E3F9" stroke="black" stroke-width="10"/>
<path fill-rule="evenodd" clip-rule="evenodd" d="M98.448 118.535C88.9735 116.934 86.4904 114.533 86.4904 114.533L79.0929 86.9256C76.8698 78.629 86.1014 76.462 86.1014 76.462L116.856 68.2213C119.574 67.493 122.504 68.701 123.909 71.0842L138.63 96.2698C141.182 100.645 138.976 106.143 134.112 107.446L123.67 110.244C137.523 120.177 134.766 135.634 126.449 136.636C122.433 137.099 120.522 134.545 118.057 131.066C113.527 124.46 106.482 119.909 98.448 118.535ZM64.2255 82.937L71.2348 81.0588C74.5248 80.1773 77.7896 82.0622 78.6711 85.3522L86.2603 113.675C87.1418 116.965 85.2569 120.23 81.9669 121.112L74.9576 122.99C71.6676 123.871 68.4029 121.986 67.5213 118.696L59.9322 90.3733C59.0506 87.0833 60.9355 83.8185 64.2255 82.937Z" fill="white"/>
<path d="M86.4904 114.533L81.6607 115.827L82.0192 117.165L83.0148 118.128L86.4904 114.533ZM98.448 118.535L99.2907 113.607L99.281 113.605L98.448 118.535ZM79.0929 86.9256L74.2632 88.2197L79.0929 86.9256ZM86.1014 76.462L87.244 81.3297L87.32 81.3119L87.3955 81.2916L86.1014 76.462ZM116.856 68.2213L118.15 73.0509L116.856 68.2213ZM123.909 71.0842L128.226 68.5611L128.221 68.5529L128.216 68.5447L123.909 71.0842ZM138.63 96.2698L142.949 93.7505L142.947 93.7467L138.63 96.2698ZM134.112 107.446L135.406 112.275L134.112 107.446ZM123.67 110.244L122.376 105.414L112.168 108.149L120.756 114.307L123.67 110.244ZM126.449 136.636L127.021 141.603L127.034 141.602L127.047 141.6L126.449 136.636ZM118.057 131.066L113.933 133.893L113.955 133.925L113.978 133.957L118.057 131.066ZM71.2348 81.0588L69.9407 76.2292L71.2348 81.0588ZM64.2255 82.937L65.5196 87.7666L64.2255 82.937ZM81.9669 121.112L80.6728 116.282L81.9669 121.112ZM74.9576 122.99L76.2517 127.819L74.9576 122.99ZM67.5213 118.696L72.3509 117.402L67.5213 118.696ZM59.9322 90.3733L55.1025 91.6674L59.9322 90.3733ZM86.4904 114.533C83.0148 118.128 83.0176 118.131 83.0203 118.133C83.0213 118.134 83.0241 118.137 83.026 118.139C83.0297 118.142 83.0335 118.146 83.0374 118.15C83.0451 118.157 83.0529 118.164 83.061 118.172C83.077 118.187 83.0938 118.203 83.1112 118.219C83.146 118.251 83.1836 118.285 83.224 118.32C83.3049 118.391 83.3971 118.468 83.5016 118.552C83.7106 118.718 83.9682 118.907 84.2817 119.113C84.9088 119.525 85.7579 120.003 86.8896 120.505C89.1478 121.506 92.5518 122.61 97.615 123.465L99.281 113.605C94.8698 112.86 92.2949 111.963 90.9429 111.363C90.2694 111.065 89.9056 110.843 89.7711 110.754C89.7038 110.71 89.6933 110.699 89.7295 110.728C89.7476 110.742 89.7772 110.766 89.8171 110.801C89.837 110.819 89.8595 110.839 89.8844 110.862C89.8968 110.873 89.9098 110.885 89.9234 110.898C89.9302 110.905 89.9372 110.911 89.9442 110.918C89.9478 110.921 89.9514 110.925 89.955 110.928C89.9568 110.93 89.9595 110.933 89.9604 110.934C89.9632 110.936 89.9659 110.939 86.4904 114.533ZM74.2632 88.2197L81.6607 115.827L91.32 113.239L83.9225 85.6315L74.2632 88.2197ZM86.1014 76.462C84.9587 71.5943 84.9566 71.5948 84.9543 71.5954C84.9535 71.5955 84.9513 71.5961 84.9497 71.5965C84.9465 71.5972 84.9432 71.598 84.9397 71.5988C84.9328 71.6005 84.9252 71.6023 84.9171 71.6043C84.9009 71.6082 84.8822 71.6128 84.8613 71.618C84.8196 71.6284 84.7686 71.6415 84.7092 71.6574C84.5904 71.6891 84.4368 71.7321 84.254 71.7877C83.8901 71.8984 83.4012 72.0617 82.8343 72.2888C81.7258 72.7329 80.1904 73.4718 78.6938 74.6357C77.1899 75.8054 75.5825 77.5181 74.6134 79.9193C73.6174 82.3874 73.4535 85.1976 74.2632 88.2197L83.9225 85.6315C83.6207 84.5053 83.7771 83.9334 83.8867 83.6617C84.0234 83.3232 84.307 82.9386 84.8331 82.5294C85.3665 82.1146 86.0001 81.7932 86.553 81.5717C86.8168 81.466 87.0318 81.3952 87.164 81.3549C87.2293 81.3351 87.2719 81.3234 87.2873 81.3193C87.2949 81.3173 87.2955 81.3172 87.2885 81.319C87.285 81.3198 87.2796 81.3212 87.2722 81.323C87.2685 81.3239 87.2643 81.3249 87.2596 81.326C87.2573 81.3266 87.2548 81.3272 87.2522 81.3278C87.2509 81.3281 87.2488 81.3286 87.2482 81.3287C87.2461 81.3292 87.244 81.3297 86.1014 76.462ZM115.562 63.3917L84.8073 71.6324L87.3955 81.2916L118.15 73.0509L115.562 63.3917ZM128.216 68.5447C125.666 64.2201 120.442 62.0841 115.562 63.3917L118.15 73.0509C118.706 72.902 119.342 73.182 119.602 73.6237L128.216 68.5447ZM142.947 93.7467L128.226 68.5611L119.592 73.6073L134.313 98.7929L142.947 93.7467ZM135.406 112.275C143.53 110.099 147.123 100.906 142.949 93.7505L134.311 98.789C135.242 100.385 134.422 102.187 132.818 102.616L135.406 112.275ZM124.964 115.073L135.406 112.275L132.818 102.616L122.376 105.414L124.964 115.073ZM127.047 141.6C134.693 140.679 138.377 133.426 138.373 126.787C138.37 119.766 134.667 111.976 126.583 106.18L120.756 114.307C126.526 118.444 128.372 123.35 128.373 126.792C128.375 130.614 126.522 131.591 125.851 131.672L127.047 141.6ZM113.978 133.957C115.116 135.564 116.618 137.711 118.575 139.255C120.855 141.053 123.645 141.992 127.021 141.603L125.876 131.669C125.454 131.718 125.261 131.671 125.193 131.651C125.124 131.631 124.995 131.582 124.768 131.403C124.15 130.916 123.463 130.047 122.137 128.175L113.978 133.957ZM97.6054 123.464C104.304 124.609 110.167 128.401 113.933 133.893L122.181 128.238C116.888 120.52 108.66 115.209 99.2907 113.607L97.6054 123.464ZM69.9407 76.2292L62.9315 78.1073L65.5196 87.7666L72.5289 85.8885L69.9407 76.2292ZM83.5008 84.0581C81.9045 78.1007 75.8981 74.6329 69.9407 76.2292L72.5289 85.8885C72.8831 85.7935 73.1581 85.8569 73.3561 85.9713C73.5542 86.0857 73.7466 86.292 73.8415 86.6463L83.5008 84.0581ZM91.0899 112.381L83.5008 84.0581L73.8415 86.6463L81.4306 114.969L91.0899 112.381ZM83.261 125.941C89.2183 124.345 92.6862 118.339 91.0899 112.381L81.4306 114.969C81.5256 115.324 81.4622 115.599 81.3478 115.797C81.2334 115.995 81.0271 116.187 80.6728 116.282L83.261 125.941ZM76.2517 127.819L83.261 125.941L80.6728 116.282L73.6636 118.16L76.2517 127.819ZM62.6917 119.99C64.2879 125.948 70.2944 129.416 76.2517 127.819L73.6636 118.16C73.3093 118.255 73.0344 118.192 72.8363 118.077C72.6382 117.963 72.4459 117.756 72.3509 117.402L62.6917 119.99ZM55.1025 91.6674L62.6917 119.99L72.3509 117.402L64.7618 89.0792L55.1025 91.6674ZM62.9315 78.1073C56.9741 79.7036 53.5063 85.71 55.1025 91.6674L64.7618 89.0792C64.6669 88.7249 64.7303 88.45 64.8446 88.2519C64.959 88.0539 65.1654 87.8615 65.5196 87.7666L62.9315 78.1073Z" fill="black"/>
</svg>
