<svg width="326" height="73" viewBox="0 0 326 73" fill="none" xmlns="http://www.w3.org/2000/svg">
<path d="M8.46131 66.1508V68.1668H2.43731V66.1268H6.42131V64.1588H4.42931V62.1668H2.43731V58.1108H4.42931V56.1188H10.4773V58.1588H6.46931V60.1268H8.46131V62.1188H10.4773V66.1508H8.46131ZM14.6373 68.1668V52.1108H18.6693V68.1668H14.6373ZM32.8615 66.1508V68.1668H24.8215V66.1508H22.8295V58.1108H24.8215V56.1188H32.8615V58.1108H34.8535V60.1508H32.8615V62.1668H28.8535V64.1588H26.8615V66.1268H32.8135V64.1108H34.8535V66.1508H32.8615ZM30.8215 58.1588H26.8615V62.1188H28.8295V60.1268H30.8215V58.1588ZM49.0693 66.1508V68.1668H41.0293V66.1508H39.0373V58.1108H41.0293V56.1188H49.0693V58.1108H51.0613V60.1508H49.0693V62.1668H45.0613V64.1588H43.0693V66.1268H49.0213V64.1108H51.0613V66.1508H49.0693ZM47.0293 58.1588H43.0693V62.1188H45.0373V60.1268H47.0293V58.1588ZM65.2771 66.1508V68.1668H59.2771V72.1748H55.2451V56.1188H65.2771V58.1108H67.2691V66.1508H65.2771ZM63.2371 58.1588H59.2771V66.1268H63.2371V58.1588ZM77.6529 54.1508V52.1108H81.6849V54.1508H77.6529ZM79.6929 70.1588V72.1748H75.6369V70.1348H77.6529V56.1188H81.6849V70.1588H79.6929ZM95.8771 66.1508V68.1668H87.8371V66.1508H85.8451V58.1108H87.8371V56.1188H95.8771V58.1108H97.8691V60.1508H95.8771V62.1668H91.8691V64.1588H89.8771V66.1268H95.8291V64.1108H97.8691V66.1508H95.8771ZM93.8371 58.1588H89.8771V62.1188H91.8451V60.1268H93.8371V58.1588ZM112.285 58.1588V68.1668H108.253V58.1588H106.237V56.1188H108.253V54.1268H110.245V52.1108H116.293V54.1508H112.285V56.1188H116.293V58.1588H112.285ZM128.493 66.1508V68.1668H120.453V66.1508H118.461V58.1108H120.453V56.1188H128.493V58.1108H130.485V66.1508H128.493ZM126.453 58.1588H122.493V66.1268H126.453V58.1588ZM138.701 58.1588V68.1668H134.669V58.1588H132.653V56.1188H134.669V52.1108H138.701V56.1188H140.693V58.1588H138.701ZM152.893 66.1508V68.1668H144.853V66.1508H142.861V58.1108H144.853V56.1188H152.893V58.1108H154.885V66.1508H152.893ZM150.853 58.1588H146.893V66.1268H150.853V58.1588ZM173.261 68.1668V58.1588H171.293V60.1508H169.301V68.1668H165.269V56.1188H169.301V58.1108H171.269V56.1188H175.301V58.1108H177.293V68.1668H173.261ZM183.468 68.1668V66.1508H181.476V62.1188H183.468V60.1268H189.468V58.1588H183.468V56.1188H191.508V58.1108H193.5V68.1668H183.468ZM189.468 62.1668H185.508V66.1268H189.468V62.1668ZM199.676 68.1668V66.1508H197.684V62.1188H199.676V60.1268H205.676V58.1588H199.676V56.1188H207.716V58.1108H209.708V68.1668H199.676ZM205.676 62.1668H201.716V66.1268H205.676V62.1668ZM217.924 60.1508V68.1668H213.892V56.1188H217.924V58.1108H219.892V56.1188H221.932V60.1508H217.924ZM232.292 68.1668V66.1508H230.3V58.1108H232.292V56.1188H238.292V52.1108H242.324V68.1668H232.292ZM238.292 58.1588H234.332V66.1268H238.292V58.1588ZM256.54 66.1508V68.1668H248.5V66.1508H246.508V58.1108H248.5V56.1188H256.54V58.1108H258.532V60.1508H256.54V62.1668H252.532V64.1588H250.54V66.1268H256.492V64.1108H258.532V66.1508H256.54ZM254.5 58.1588H250.54V62.1188H252.508V60.1268H254.5V58.1588ZM272.947 58.1588V68.1668H268.915V58.1588H266.899V56.1188H268.915V54.1268H270.907V52.1108H276.955V54.1508H272.947V56.1188H276.955V58.1588H272.947ZM289.155 66.1508V68.1668H281.115V66.1508H279.123V58.1108H281.115V56.1188H289.155V58.1108H291.147V60.1508H289.155V62.1668H285.147V64.1588H283.155V66.1268H289.107V64.1108H291.147V66.1508H289.155ZM287.115 58.1588H283.155V62.1188H285.123V60.1268H287.115V58.1588ZM305.363 66.1508V68.1668H297.323V66.1508H295.331V58.1108H297.323V56.1188H305.363V58.1108H307.355V60.1508H305.363V62.1668H301.355V64.1588H299.363V66.1268H305.315V64.1108H307.355V66.1508H305.363ZM303.323 58.1588H299.363V62.1188H301.331V60.1268H303.323V58.1588ZM313.531 68.1668V66.1508H311.539V58.1108H313.531V56.1188H319.531V52.1108H323.563V68.1668H313.531ZM319.531 58.1588H315.571V66.1268H319.531V58.1588Z" fill="black"/>
<path fill-rule="evenodd" clip-rule="evenodd" d="M95 11.1428L95 18.1428L202.857 18.1428L202.857 21.8571L202.857 25.4999L202.857 29.1428L210.143 29.1428L210.143 25.4999L217.429 25.4999L217.429 21.8571L224.714 21.8571L224.714 18.1428L232 18.1428L232 11.1428L224.714 11.1428L224.714 7.2857L217.429 7.2857L217.429 3.64273L210.143 3.64273L210.143 -4.12727e-05L202.857 -4.09542e-05L202.857 3.64273L202.857 7.2857L202.857 11.1428L95 11.1428Z" fill="black"/>
</svg>
