<svg width="178" height="178" viewBox="0 0 178 178" fill="none" xmlns="http://www.w3.org/2000/svg">
<path fill-rule="evenodd" clip-rule="evenodd" d="M73.6552 0H104.345V6.13793H98.2069V12.2759H92.0689V42.9655H110.483V24.5517H116.621V42.9655H122.759H153.448V36.8276H159.586V49.1034H153.448L122.759 49.1034L122.759 61.3793H116.621V49.1034H92.0689L92.069 85.931L128.897 85.931V79.7931H135.034V85.931H165.724V79.7931H171.862L171.862 73.6552H178V104.345H171.862L171.862 98.2069H165.724V92.069H135.034V98.2069H128.897V92.069L92.069 92.069V128.897H116.621V116.621H122.759L122.759 128.897L153.448 128.897L155.29 128.897L159.586 128.897V141.172H153.448V135.034H122.759H116.621V153.448H110.483V135.034H92.069V165.724H98.2069V171.862H104.345L104.345 178H73.6552V171.862L79.7931 171.862V165.724H85.931V135.034H67.5172V153.448H61.3793V135.034H55.2414H24.5517V141.172H18.4138L18.4138 128.897L22.7103 128.897L24.5517 128.897L55.2414 128.897V116.621H61.3793V128.897H85.931V92.069H49.1035V98.2069H42.9655V92.069H12.2759V98.2069H6.13793L6.13793 104.345H0V73.6552H6.13793L6.13793 79.7931H12.2759V85.931H42.9655V79.7931H49.1035V85.931H85.931L85.931 49.1034H61.3793V61.3793H55.2414V49.1034H24.5517H21.4828H18.4138L18.4138 36.8276H24.5517L24.5517 42.9655L55.2414 42.9655H61.3793V24.5517H67.5172V42.9655H85.931V12.2759H79.7931V6.13793H73.6552V0ZM73.6552 12.2759H79.7931V18.4138L73.6552 18.4138V12.2759ZM61.3793 12.2759V6.13793H73.6552V12.2759H61.3793ZM49.1034 18.4138V12.2759H61.3793V18.4138H49.1034ZM36.8276 24.5517V18.4138L49.1034 18.4138V24.5517H36.8276ZM30.6897 30.6897V24.5517H36.8276V30.6897H30.6897ZM30.6897 30.6897H24.5517V36.8276H30.6897V30.6897ZM73.6552 18.4138V24.5517L67.5172 24.5517V18.4138H73.6552ZM12.2759 61.3793V49.1034H18.4138L18.4138 61.3793L12.2759 61.3793ZM12.2759 61.3793L12.2759 73.6552H6.13793L6.13793 61.3793H12.2759ZM55.2414 61.3793V79.7931L49.1035 79.7931L49.1034 61.3793H55.2414ZM12.2759 116.621H6.13793L6.13793 104.345H12.2759L12.2759 116.621ZM12.2759 116.621V128.897H18.4138V116.621L12.2759 116.621ZM49.1035 98.2069H55.2414V116.621H49.1034L49.1035 98.2069ZM30.6897 147.31L30.6897 141.172L24.5517 141.172V147.31H30.6897ZM36.8276 153.448V147.31H30.6897V153.448L36.8276 153.448ZM49.1034 159.586V153.448L36.8276 153.448V159.586H49.1034ZM61.3793 165.724L61.3793 159.586L49.1034 159.586V165.724L61.3793 165.724ZM73.6552 165.724L61.3793 165.724V171.862H73.6552V165.724ZM73.6552 159.586H79.7931V165.724H73.6552V159.586ZM73.6552 159.586H67.5172V153.448L73.6552 153.448V159.586ZM104.345 165.724H98.2069L98.2069 159.586H104.345V165.724ZM116.621 165.724V171.862L104.345 171.862V165.724L116.621 165.724ZM128.897 159.586V165.724L116.621 165.724L116.621 159.586L128.897 159.586ZM141.172 153.448V159.586H128.897V153.448L141.172 153.448ZM147.31 147.31V153.448L141.172 153.448L141.172 147.31H147.31ZM147.31 147.31H153.448L153.448 141.172L147.31 141.172V147.31ZM104.345 159.586V153.448L110.483 153.448V159.586H104.345ZM165.724 116.621L165.724 128.897H159.586V116.621L165.724 116.621ZM165.724 116.621H171.862V104.345H165.724V116.621ZM122.759 116.621V98.2069H128.897L128.897 116.621H122.759ZM165.724 61.3793H171.862V73.6552L165.724 73.6552V61.3793ZM165.724 61.3793L165.724 49.1034H159.586V61.3793L165.724 61.3793ZM128.897 79.7931L128.897 61.3793H122.759V79.7931L128.897 79.7931ZM147.31 30.6897H153.448L153.448 36.8276H147.31V30.6897ZM141.172 24.5517H147.31V30.6897H141.172L141.172 24.5517ZM128.897 18.4138L141.172 18.4138V24.5517H128.897V18.4138ZM116.621 12.2759H128.897V18.4138H116.621L116.621 12.2759ZM104.345 12.2759L104.345 6.13793H116.621V12.2759L104.345 12.2759ZM104.345 18.4138V24.5517L110.483 24.5517V18.4138H104.345ZM104.345 18.4138V12.2759L98.2069 12.2759L98.2069 18.4138L104.345 18.4138Z" fill="black"/>
</svg>
