<svg width="1480" height="693" viewBox="0 0 1480 693" fill="none" xmlns="http://www.w3.org/2000/svg">
<circle cx="1375.42" cy="269.063" r="70.8403" transform="rotate(-30 1375.42 269.063)" fill="#FBCC1B" stroke="black" stroke-width="10"/>
<path d="M1351.8 307.327C1374.24 319.89 1416.44 330.68 1420.14 267.87" stroke="black" stroke-width="10"/>
<ellipse cx="1342.56" cy="261.905" rx="7.78743" ry="16.9593" transform="rotate(-30 1342.56 261.905)" fill="black"/>
<ellipse cx="1386.28" cy="236.668" rx="7.49901" ry="16.9593" transform="rotate(-30 1386.28 236.668)" fill="black"/>
<path d="M1347.01 310.095L1358.4 303.519" stroke="black" stroke-width="10" stroke-linecap="round"/>
<path d="M1413.55 271.677L1424.94 265.101" stroke="black" stroke-width="10" stroke-linecap="round"/>
<path fill-rule="evenodd" clip-rule="evenodd" d="M56.8848 135.149C85.3987 135.149 108.514 112.034 108.514 83.5203C108.514 55.0064 85.3987 31.8914 56.8848 31.8914C28.3709 31.8914 5.25586 55.0064 5.25586 83.5203C5.25586 112.034 28.3709 135.149 56.8848 135.149ZM56.8839 106.664C69.666 106.664 80.0279 96.3024 80.0279 83.5203C80.0279 70.7382 69.666 60.3762 56.8839 60.3762C44.1018 60.3762 33.7399 70.7382 33.7399 83.5203C33.7399 96.3024 44.1018 106.664 56.8839 106.664Z" fill="#2B13E5"/>
<path d="M103.514 83.5203C103.514 109.273 82.6373 130.149 56.8848 130.149V140.149C88.1602 140.149 113.514 114.796 113.514 83.5203H103.514ZM56.8848 36.8914C82.6373 36.8914 103.514 57.7679 103.514 83.5203H113.514C113.514 52.245 88.1602 26.8914 56.8848 26.8914V36.8914ZM10.2559 83.5203C10.2559 57.7679 31.1324 36.8914 56.8848 36.8914V26.8914C25.6095 26.8914 0.255859 52.245 0.255859 83.5203H10.2559ZM56.8848 130.149C31.1324 130.149 10.2559 109.273 10.2559 83.5203H0.255859C0.255859 114.796 25.6095 140.149 56.8848 140.149V130.149ZM75.0279 83.5203C75.0279 93.5409 66.9045 101.664 56.8839 101.664V111.664C72.4274 111.664 85.0279 99.0638 85.0279 83.5203H75.0279ZM56.8839 65.3762C66.9045 65.3762 75.0279 73.4996 75.0279 83.5203H85.0279C85.0279 67.9768 72.4274 55.3762 56.8839 55.3762V65.3762ZM38.7399 83.5203C38.7399 73.4996 46.8632 65.3762 56.8839 65.3762V55.3762C41.3404 55.3762 28.7399 67.9768 28.7399 83.5203H38.7399ZM56.8839 101.664C46.8632 101.664 38.7399 93.5409 38.7399 83.5203H28.7399C28.7399 99.0638 41.3404 111.664 56.8839 111.664V101.664Z" fill="black"/>
<path d="M194.359 265.643C159.245 245.369 114.343 257.401 94.0695 292.516C73.7959 327.631 85.8272 372.532 120.942 392.805C156.057 413.079 200.958 401.048 221.232 365.933C241.506 330.818 229.474 285.917 194.359 265.643Z" fill="#EF5452" stroke="black" stroke-width="10"/>
<path fill-rule="evenodd" clip-rule="evenodd" d="M171.11 320.417C176.384 327.836 176.439 331.108 176.439 331.108L162.901 354.556C158.833 361.603 151.197 356.87 151.197 356.87L125.076 341.789C122.768 340.457 121.614 337.685 122.269 335.147L129.279 308.415C130.5 303.775 135.661 301.57 139.792 303.955L148.661 309.076C146.035 293.142 158.236 284.635 164.478 289.535C167.478 291.915 167.047 294.906 166.368 298.888C164.978 306.347 166.648 314.115 171.11 320.417ZM170.189 367.187L164.235 363.75C161.441 362.136 160.517 358.687 162.13 355.893L176.019 331.837C177.632 329.042 181.082 328.118 183.876 329.731L189.829 333.168C192.624 334.782 193.548 338.231 191.935 341.026L178.046 365.082C176.433 367.876 172.983 368.8 170.189 367.187Z" fill="white"/>
<path d="M176.439 331.108L180.769 333.608L181.462 332.408L181.438 331.023L176.439 331.108ZM171.11 320.417L167.029 323.306L167.035 323.314L171.11 320.417ZM151.197 356.87L153.831 352.621L153.765 352.579L153.697 352.54L151.197 356.87ZM125.076 341.789L127.576 337.459L125.076 341.789ZM122.269 335.147L117.433 333.879L117.43 333.888L117.428 333.897L122.269 335.147ZM129.279 308.415L124.444 307.143L124.442 307.147L129.279 308.415ZM148.661 309.076L146.161 313.406L155.313 318.69L153.594 308.263L148.661 309.076ZM164.478 289.535L167.586 285.618L167.576 285.61L167.566 285.602L164.478 289.535ZM166.368 298.888L171.283 299.805L171.291 299.767L171.297 299.729L166.368 298.888ZM164.235 363.75L166.735 359.42L164.235 363.75ZM170.189 367.187L167.689 371.517L170.189 367.187ZM162.13 355.893L166.46 358.393L162.13 355.893ZM176.019 331.837L171.689 329.337L176.019 331.837ZM176.439 331.108C181.438 331.023 181.438 331.02 181.438 331.016C181.438 331.014 181.438 331.011 181.438 331.008C181.438 331.003 181.438 330.997 181.438 330.992C181.438 330.982 181.437 330.971 181.437 330.96C181.436 330.938 181.436 330.915 181.435 330.892C181.433 330.845 181.43 330.795 181.426 330.742C181.42 330.636 181.409 330.518 181.395 330.388C181.365 330.129 181.318 329.822 181.244 329.466C181.097 328.755 180.844 327.852 180.417 326.745C179.566 324.538 178.014 321.499 175.185 317.52L167.035 323.314C169.48 326.754 170.592 329.061 171.087 330.343C171.334 330.982 171.424 331.361 171.452 331.495C171.466 331.562 171.464 331.569 171.458 331.517C171.455 331.491 171.451 331.451 171.448 331.396C171.446 331.369 171.444 331.338 171.443 331.304C171.442 331.287 171.442 331.269 171.441 331.251C171.441 331.241 171.441 331.232 171.44 331.222C171.44 331.217 171.44 331.212 171.44 331.207C171.44 331.204 171.44 331.201 171.44 331.199C171.44 331.195 171.44 331.192 176.439 331.108ZM167.231 357.056L180.769 333.608L172.109 328.608L158.571 352.056L167.231 357.056ZM151.197 356.87C148.563 361.12 148.565 361.122 148.567 361.123C148.568 361.123 148.57 361.124 148.571 361.125C148.574 361.127 148.577 361.129 148.58 361.131C148.586 361.134 148.592 361.138 148.599 361.143C148.614 361.151 148.63 361.161 148.648 361.172C148.684 361.193 148.728 361.22 148.78 361.249C148.883 361.309 149.017 361.385 149.18 361.471C149.503 361.644 149.947 361.866 150.487 362.097C151.541 362.548 153.089 363.09 154.903 363.317C156.727 363.545 159 363.475 161.311 362.492C163.689 361.482 165.723 359.668 167.231 357.056L158.571 352.056C158.045 352.968 157.599 353.205 157.401 353.289C157.136 353.401 156.738 353.469 156.144 353.394C155.541 353.319 154.925 353.119 154.421 352.903C154.182 352.801 153.997 352.707 153.887 352.649C153.833 352.62 153.799 352.601 153.789 352.594C153.783 352.591 153.784 352.592 153.791 352.596C153.794 352.598 153.8 352.601 153.806 352.605C153.81 352.607 153.813 352.609 153.818 352.612C153.82 352.613 153.822 352.615 153.824 352.616C153.825 352.617 153.827 352.618 153.828 352.618C153.829 352.619 153.831 352.621 151.197 356.87ZM122.576 346.119L148.697 361.201L153.697 352.54L127.576 337.459L122.576 346.119ZM117.428 333.897C116.209 338.617 118.329 343.668 122.576 346.119L127.576 337.459C127.415 337.366 127.264 337.205 127.17 336.981C127.075 336.756 127.072 336.547 127.11 336.397L117.428 333.897ZM124.442 307.147L117.433 333.879L127.106 336.415L134.115 309.684L124.442 307.147ZM142.292 299.625C135.238 295.553 126.484 299.39 124.444 307.143L134.114 309.688C134.516 308.16 136.084 307.588 137.292 308.285L142.292 299.625ZM151.161 304.746L142.292 299.625L137.292 308.285L146.161 313.406L151.161 304.746ZM167.566 285.602C161.681 280.983 154.204 283.457 149.706 287.959C144.94 292.731 142.183 300.518 143.727 309.889L153.594 308.263C152.513 301.701 154.543 297.267 156.781 295.027C159.288 292.517 161.033 293.187 161.391 293.468L167.566 285.602ZM171.297 299.729C171.609 297.898 172.051 295.415 171.768 293.024C171.438 290.227 170.165 287.665 167.586 285.618L161.371 293.452C161.662 293.683 161.736 293.818 161.749 293.842C161.763 293.868 161.808 293.953 161.837 294.198C161.87 294.475 161.875 294.901 161.807 295.577C161.737 296.263 161.611 297.038 161.439 298.048L171.297 299.729ZM175.191 317.528C171.512 312.332 170.14 305.937 171.283 299.805L161.453 297.972C159.815 306.757 161.785 315.899 167.029 323.306L175.191 317.528ZM161.735 368.08L167.689 371.517L172.689 362.857L166.735 359.42L161.735 368.08ZM157.8 353.393C154.806 358.578 156.55 365.086 161.735 368.08L166.735 359.42C166.496 359.281 166.398 359.112 166.36 358.97C166.321 358.828 166.322 358.632 166.46 358.393L157.8 353.393ZM171.689 329.337L157.8 353.393L166.46 358.393L180.349 334.337L171.689 329.337ZM186.376 325.401C181.19 322.407 174.683 324.151 171.689 329.337L180.349 334.337C180.487 334.097 180.656 333.999 180.799 333.961C180.941 333.922 181.136 333.923 181.376 334.061L186.376 325.401ZM192.329 328.838L186.376 325.401L181.376 334.061L187.329 337.498L192.329 328.838ZM196.265 343.526C199.259 338.34 197.515 331.832 192.329 328.838L187.329 337.498C187.569 337.637 187.667 337.806 187.705 337.948C187.743 338.09 187.743 338.286 187.605 338.526L196.265 343.526ZM182.376 367.582L196.265 343.526L187.605 338.526L173.716 362.582L182.376 367.582ZM167.689 371.517C172.875 374.511 179.382 372.767 182.376 367.582L173.716 362.582C173.577 362.821 173.408 362.919 173.266 362.957C173.124 362.996 172.929 362.995 172.689 362.857L167.689 371.517Z" fill="black"/>
<path fill-rule="evenodd" clip-rule="evenodd" d="M1266.03 25.7614C1260.13 22.3556 1252.59 24.3768 1249.18 30.2757L1243.02 40.957L1232.33 34.7898C1226.43 31.3841 1218.89 33.4052 1215.49 39.3041C1212.08 45.203 1214.1 52.7459 1220 56.1517L1230.68 62.3188L1224.52 72.9993C1221.11 78.8982 1223.13 86.4411 1229.03 89.8468C1234.93 93.2526 1242.47 91.2315 1245.88 85.3326L1252.04 74.652L1262.72 80.8182C1268.62 84.2239 1276.17 82.2028 1279.57 76.3039C1282.98 70.405 1280.96 62.8621 1275.06 59.4563L1264.38 53.2902L1270.54 42.6089C1273.95 36.71 1271.93 29.1671 1266.03 25.7614Z" fill="#21E3F9"/>
<path d="M1243.02 40.957L1240.52 45.2871L1244.85 47.7871L1247.35 43.457L1243.02 40.957ZM1232.33 34.7898L1234.83 30.4597L1234.83 30.4597L1232.33 34.7898ZM1215.49 39.3041L1219.82 41.8041L1219.82 41.8041L1215.49 39.3041ZM1220 56.1517L1217.5 60.4818L1220 56.1517ZM1230.68 62.3188L1235.01 64.8188L1237.51 60.4887L1233.18 57.9887L1230.68 62.3188ZM1252.04 74.652L1254.54 70.3219L1250.21 67.8219L1247.71 72.152L1252.04 74.652ZM1262.72 80.8182L1265.22 76.488L1262.72 80.8182ZM1275.06 59.4563L1277.56 55.1262L1275.06 59.4563ZM1264.38 53.2902L1260.05 50.7902L1257.55 55.1204L1261.88 57.6204L1264.38 53.2902ZM1270.54 42.6089L1266.21 40.1089L1270.54 42.6089ZM1253.51 32.7757C1255.54 29.2682 1260.02 28.0665 1263.53 30.0915L1268.53 21.4313C1260.24 16.6448 1249.64 19.4853 1244.85 27.7757L1253.51 32.7757ZM1247.35 43.457L1253.51 32.7757L1244.85 27.7757L1238.69 38.457L1247.35 43.457ZM1229.83 39.12L1240.52 45.2871L1245.52 36.6268L1234.83 30.4597L1229.83 39.12ZM1219.82 41.8041C1221.84 38.2967 1226.33 37.0949 1229.83 39.12L1234.83 30.4597C1226.54 25.6733 1215.94 28.5137 1211.16 36.8041L1219.82 41.8041ZM1222.5 51.8215C1218.99 49.7965 1217.79 45.3116 1219.82 41.8041L1211.16 36.8041C1206.37 45.0945 1209.21 55.6953 1217.5 60.4818L1222.5 51.8215ZM1233.18 57.9887L1222.5 51.8215L1217.5 60.4818L1228.18 66.6489L1233.18 57.9887ZM1228.85 75.4993L1235.01 64.8188L1226.35 59.8188L1220.19 70.4993L1228.85 75.4993ZM1231.53 85.5167C1228.02 83.4917 1226.82 79.0068 1228.85 75.4993L1220.19 70.4993C1215.4 78.7897 1218.24 89.3905 1226.53 94.177L1231.53 85.5167ZM1241.55 82.8326C1239.52 86.34 1235.04 87.5417 1231.53 85.5167L1226.53 94.177C1234.82 98.9634 1245.42 96.1229 1250.21 87.8326L1241.55 82.8326ZM1247.71 72.152L1241.55 82.8326L1250.21 87.8326L1256.37 77.152L1247.71 72.152ZM1265.22 76.488L1254.54 70.3219L1249.54 78.9822L1260.22 85.1483L1265.22 76.488ZM1275.24 73.8039C1273.22 77.3113 1268.73 78.5131 1265.22 76.488L1260.22 85.1483C1268.51 89.9347 1279.12 87.0942 1283.9 78.8039L1275.24 73.8039ZM1272.56 63.7865C1276.06 65.8115 1277.27 70.2964 1275.24 73.8039L1283.9 78.8039C1288.69 70.5135 1285.85 59.9127 1277.56 55.1262L1272.56 63.7865ZM1261.88 57.6204L1272.56 63.7865L1277.56 55.1262L1266.88 48.9601L1261.88 57.6204ZM1266.21 40.1089L1260.05 50.7902L1268.71 55.7902L1274.87 45.1089L1266.21 40.1089ZM1263.53 30.0915C1267.04 32.1165 1268.24 36.6015 1266.21 40.1089L1274.87 45.1089C1279.66 36.8185 1276.82 26.2177 1268.53 21.4313L1263.53 30.0915Z" fill="black"/>
<rect width="28.4196" height="85.2589" rx="14.2098" transform="matrix(0.916334 0.400414 0.400414 -0.916334 1196.99 674.62)" fill="#21E3F9" stroke="black" stroke-width="10"/>
</svg>
