<svg width="1468" height="380" viewBox="0 0 1468 380" fill="none" xmlns="http://www.w3.org/2000/svg">
<rect x="1039" y="260" width="10" height="30" fill="white"/>
<rect x="1039" y="250" width="10" height="10" fill="white"/>
<rect x="1049" y="240" width="10" height="10" fill="white"/>
<rect x="1049" y="230" width="10" height="10" fill="white"/>
<rect x="1059" y="230" width="10" height="10" fill="white"/>
<rect x="1069" y="230" width="10" height="10" fill="white"/>
<rect x="1228" y="110" width="10" height="10" fill="white"/>
<rect x="1228" y="100" width="10" height="10" fill="white"/>
<rect x="1228" y="90" width="10" height="10" fill="white"/>
<rect x="1228" y="80" width="10" height="10" fill="white"/>
<rect x="1238" y="80" width="10" height="10" fill="white"/>
<rect x="1238" y="70" width="10" height="10" fill="white"/>
<rect x="1248" y="70" width="10" height="10" fill="white"/>
<rect x="1248" y="60" width="10" height="10" fill="white"/>
<rect x="1258" y="60" width="10" height="10" fill="white"/>
<rect x="1258" y="50" width="10" height="10" fill="white"/>
<rect x="1268" y="50" width="10" height="10" fill="white"/>
<rect x="1278" y="50" width="10" height="10" fill="white"/>
<rect x="1288" y="50" width="10" height="10" fill="white"/>
<rect x="1298" y="50" width="10" height="10" fill="white"/>
<rect x="1308" y="50" width="10" height="10" fill="white"/>
<rect x="1318" y="60" width="10" height="10" fill="white"/>
<rect x="1328" y="60" width="10" height="10" fill="white"/>
<rect x="1338" y="70" width="10" height="10" fill="white"/>
<rect x="1348" y="80" width="10" height="10" fill="white"/>
<rect x="1358" y="90" width="10" height="10" fill="white"/>
<rect x="1358" y="100" width="10" height="10" fill="white"/>
<rect x="1358" y="110" width="10" height="10" fill="white"/>
<rect x="1358" y="120" width="10" height="10" fill="white"/>
<rect x="1368" y="120" width="10" height="10" fill="white"/>
<rect x="1378" y="120" width="10" height="10" fill="white"/>
<rect x="1388" y="130" width="10" height="10" fill="white"/>
<rect x="1398" y="140" width="10" height="10" fill="white"/>
<rect x="1408" y="150" width="10" height="10" fill="white"/>
<rect x="1408" y="160" width="10" height="10" fill="white"/>
<rect x="1408" y="170" width="10" height="10" fill="white"/>
<rect x="1408" y="180" width="10" height="10" fill="white"/>
<rect x="1418" y="190" width="10" height="10" fill="white"/>
<rect x="1428" y="200" width="10" height="10" fill="white"/>
<rect x="1438" y="200" width="10" height="10" fill="white"/>
<rect x="1448" y="210" width="10" height="10" fill="white"/>
<rect x="1458" y="220" width="10" height="10" fill="white"/>
<rect x="1458" y="230" width="10" height="10" fill="white"/>
<rect x="1458" y="240" width="10" height="10" fill="white"/>
<rect x="1458" y="250" width="10" height="10" fill="white"/>
<rect x="1448" y="260" width="10" height="10" fill="white"/>
<rect x="1438" y="260" width="10" height="10" fill="white"/>
<rect x="1438" y="270" width="10" height="10" fill="white"/>
<rect x="1428" y="270" width="10" height="10" fill="white"/>
<rect x="1428" y="280" width="10" height="10" fill="white"/>
<rect x="1039" y="280" width="389" height="10" fill="white"/>
<rect x="1267" y="56" width="51" height="104" fill="white"/>
<rect x="1287" y="70" width="51" height="104" fill="white"/>
<rect x="1297" y="80" width="51" height="104" fill="white"/>
<rect x="1307" y="90" width="51" height="104" fill="white"/>
<rect x="1278" y="116" width="51" height="104" fill="white"/>
<rect x="1407" y="220" width="51" height="49" fill="white"/>
<rect x="1387" y="241" width="51" height="49" fill="white"/>
<rect x="1397" y="210" width="51" height="49" fill="white"/>
<rect x="1377" y="200" width="51" height="49" fill="white"/>
<rect x="1258" y="220" width="51" height="70" fill="white"/>
<rect x="1059" y="240" width="204" height="40" fill="white"/>
<rect x="1049" y="250" width="16" height="30" fill="white"/>
<rect x="1248" y="70" width="51" height="80" fill="white"/>
<rect x="1238" y="90" width="51" height="50" fill="white"/>
<rect x="1337" y="130" width="51" height="104" fill="white"/>
<rect x="1347" y="140" width="51" height="104" fill="white"/>
<rect x="1357" y="150" width="51" height="104" fill="white"/>
<rect x="1278" y="182" width="140" height="104" fill="white"/>
<rect x="859" y="210" width="10" height="30" fill="white"/>
<rect x="859" y="200" width="10" height="10" fill="white"/>
<rect x="869" y="190" width="10" height="10" fill="white"/>
<rect x="869" y="180" width="10" height="10" fill="white"/>
<rect x="879" y="180" width="10" height="10" fill="white"/>
<rect x="889" y="180" width="10" height="10" fill="white"/>
<rect x="889" y="170" width="10" height="10" fill="white"/>
<rect x="889" y="160" width="10" height="10" fill="white"/>
<rect x="889" y="150" width="10" height="10" fill="white"/>
<rect x="899" y="150" width="10" height="10" fill="white"/>
<rect x="899" y="140" width="10" height="10" fill="white"/>
<rect x="909" y="140" width="10" height="10" fill="white"/>
<rect x="909" y="130" width="10" height="10" fill="white"/>
<rect x="919" y="130" width="10" height="10" fill="white"/>
<rect x="919" y="120" width="10" height="10" fill="white"/>
<rect x="929" y="120" width="10" height="10" fill="white"/>
<rect x="939" y="120" width="10" height="10" fill="white"/>
<rect x="949" y="120" width="10" height="10" fill="white"/>
<rect x="959" y="120" width="10" height="10" fill="white"/>
<rect x="959" y="130" width="10" height="10" fill="white"/>
<rect x="969" y="130" width="10" height="10" fill="white"/>
<rect x="969" y="140" width="10" height="10" fill="white"/>
<rect x="959" y="110" width="10" height="10" fill="white"/>
<rect x="969" y="100" width="10" height="10" fill="white"/>
<rect x="969" y="90" width="10" height="10" fill="white"/>
<rect x="979" y="80" width="10" height="10" fill="white"/>
<rect x="989" y="80" width="10" height="10" fill="white"/>
<rect x="989" y="70" width="10" height="10" fill="white"/>
<rect x="999" y="70" width="10" height="10" fill="white"/>
<rect x="1009" y="70" width="10" height="10" fill="white"/>
<rect x="1019" y="70" width="10" height="10" fill="white"/>
<rect x="1029" y="70" width="10" height="10" fill="white"/>
<rect x="1038" y="70" width="10" height="10" fill="white"/>
<rect x="1038" y="60" width="10" height="10" fill="white"/>
<rect x="1048" y="60" width="10" height="10" fill="white"/>
<rect x="1048" y="50" width="10" height="10" fill="white"/>
<rect x="1048" y="40" width="10" height="10" fill="white"/>
<rect x="1048" y="30" width="10" height="10" fill="white"/>
<rect x="1058" y="30" width="10" height="10" fill="white"/>
<rect x="1058" y="20" width="10" height="10" fill="white"/>
<rect x="1068" y="20" width="10" height="10" fill="white"/>
<rect x="1068" y="10" width="10" height="10" fill="white"/>
<rect x="1078" y="10" width="10" height="10" fill="white"/>
<rect x="1078" width="10" height="10" fill="white"/>
<rect x="1088" width="10" height="10" fill="white"/>
<rect x="1098" width="10" height="10" fill="white"/>
<rect x="1108" width="10" height="10" fill="white"/>
<rect x="1118" width="10" height="10" fill="white"/>
<rect x="1128" width="10" height="10" fill="white"/>
<rect x="1138" y="10" width="10" height="10" fill="white"/>
<rect x="1148" y="10" width="10" height="10" fill="white"/>
<rect x="1158" y="20" width="10" height="10" fill="white"/>
<rect x="1168" y="30" width="10" height="10" fill="white"/>
<rect x="1178" y="40" width="10" height="10" fill="white"/>
<rect x="1178" y="50" width="10" height="10" fill="white"/>
<rect x="1178" y="60" width="10" height="10" fill="white"/>
<rect x="1178" y="70" width="10" height="10" fill="white"/>
<rect x="1188" y="70" width="10" height="10" fill="white"/>
<rect x="1198" y="70" width="10" height="10" fill="white"/>
<rect x="1208" y="80" width="10" height="10" fill="white"/>
<rect x="1218" y="90" width="10" height="10" fill="white"/>
<rect x="1228" y="100" width="10" height="10" fill="white"/>
<rect x="1228" y="110" width="10" height="10" fill="white"/>
<rect x="1228" y="120" width="10" height="10" fill="white"/>
<rect x="1228" y="130" width="10" height="10" fill="white"/>
<rect x="1238" y="140" width="10" height="10" fill="white"/>
<rect x="1248" y="150" width="10" height="10" fill="white"/>
<rect x="1258" y="150" width="10" height="10" fill="white"/>
<rect x="1268" y="160" width="10" height="10" fill="white"/>
<rect x="1278" y="170" width="10" height="10" fill="white"/>
<rect x="1278" y="180" width="10" height="10" fill="white"/>
<rect x="1278" y="190" width="10" height="10" fill="white"/>
<rect x="1278" y="200" width="10" height="10" fill="white"/>
<rect x="1268" y="210" width="10" height="10" fill="white"/>
<rect x="1258" y="210" width="10" height="10" fill="white"/>
<rect x="1258" y="220" width="10" height="10" fill="white"/>
<rect x="1248" y="220" width="10" height="10" fill="white"/>
<rect x="1248" y="230" width="10" height="10" fill="white"/>
<rect x="859" y="230" width="389" height="10" fill="white"/>
<rect x="1038" y="80" width="10" height="10" fill="white"/>
<rect y="350" width="10" height="30" fill="white"/>
<rect y="340" width="10" height="10" fill="white"/>
<rect x="10" y="330" width="10" height="10" fill="white"/>
<rect x="10" y="320" width="10" height="10" fill="white"/>
<rect x="20" y="320" width="10" height="10" fill="white"/>
<rect x="30" y="320" width="10" height="10" fill="white"/>
<rect x="30" y="310" width="10" height="10" fill="white"/>
<rect x="30" y="300" width="10" height="10" fill="white"/>
<rect x="30" y="290" width="10" height="10" fill="white"/>
<rect x="40" y="290" width="10" height="10" fill="white"/>
<rect x="40" y="280" width="10" height="10" fill="white"/>
<rect x="50" y="280" width="10" height="10" fill="white"/>
<rect x="50" y="270" width="10" height="10" fill="white"/>
<rect x="60" y="270" width="10" height="10" fill="white"/>
<rect x="60" y="260" width="10" height="10" fill="white"/>
<rect x="70" y="260" width="10" height="10" fill="white"/>
<rect x="80" y="260" width="10" height="10" fill="white"/>
<rect x="90" y="260" width="10" height="10" fill="white"/>
<rect x="100" y="260" width="10" height="10" fill="white"/>
<rect x="100" y="270" width="10" height="10" fill="white"/>
<rect x="110" y="270" width="10" height="10" fill="white"/>
<rect x="110" y="280" width="10" height="10" fill="white"/>
<rect x="100" y="250" width="10" height="10" fill="white"/>
<rect x="110" y="240" width="10" height="10" fill="white"/>
<rect x="110" y="230" width="10" height="10" fill="white"/>
<rect x="120" y="220" width="10" height="10" fill="white"/>
<rect x="130" y="220" width="10" height="10" fill="white"/>
<rect x="130" y="210" width="10" height="10" fill="white"/>
<rect x="140" y="210" width="10" height="10" fill="white"/>
<rect x="150" y="210" width="10" height="10" fill="white"/>
<rect x="160" y="210" width="10" height="10" fill="white"/>
<rect x="170" y="210" width="10" height="10" fill="white"/>
<rect x="179" y="210" width="10" height="10" fill="white"/>
<rect x="179" y="200" width="10" height="10" fill="white"/>
<rect x="189" y="200" width="10" height="10" fill="white"/>
<rect x="189" y="190" width="10" height="10" fill="white"/>
<rect x="189" y="180" width="10" height="10" fill="white"/>
<rect x="189" y="170" width="10" height="10" fill="white"/>
<rect x="199" y="170" width="10" height="10" fill="white"/>
<rect x="199" y="160" width="10" height="10" fill="white"/>
<rect x="209" y="160" width="10" height="10" fill="white"/>
<rect x="209" y="150" width="10" height="10" fill="white"/>
<rect x="219" y="150" width="10" height="10" fill="white"/>
<rect x="219" y="140" width="10" height="10" fill="white"/>
<rect x="229" y="140" width="10" height="10" fill="white"/>
<rect x="239" y="140" width="10" height="10" fill="white"/>
<rect x="249" y="140" width="10" height="10" fill="white"/>
<rect x="259" y="140" width="10" height="10" fill="white"/>
<rect x="269" y="140" width="10" height="10" fill="white"/>
<rect x="279" y="150" width="10" height="10" fill="white"/>
<rect x="289" y="150" width="10" height="10" fill="white"/>
<rect x="299" y="160" width="10" height="10" fill="white"/>
<rect x="309" y="170" width="10" height="10" fill="white"/>
<rect x="319" y="180" width="10" height="10" fill="white"/>
<rect x="319" y="190" width="10" height="10" fill="white"/>
<rect x="319" y="200" width="10" height="10" fill="white"/>
<rect x="319" y="210" width="10" height="10" fill="white"/>
<rect x="329" y="210" width="10" height="10" fill="white"/>
<rect x="339" y="210" width="10" height="10" fill="white"/>
<rect x="349" y="220" width="10" height="10" fill="white"/>
<rect x="359" y="230" width="10" height="10" fill="white"/>
<rect x="369" y="240" width="10" height="10" fill="white"/>
<rect x="369" y="250" width="10" height="10" fill="white"/>
<rect x="369" y="260" width="10" height="10" fill="white"/>
<rect x="369" y="270" width="10" height="10" fill="white"/>
<rect x="379" y="280" width="10" height="10" fill="white"/>
<rect x="389" y="290" width="10" height="10" fill="white"/>
<rect x="399" y="290" width="10" height="10" fill="white"/>
<rect x="409" y="300" width="10" height="10" fill="white"/>
<rect x="419" y="310" width="10" height="10" fill="white"/>
<rect x="419" y="320" width="10" height="10" fill="white"/>
<rect x="419" y="330" width="10" height="10" fill="white"/>
<rect x="419" y="340" width="10" height="10" fill="white"/>
<rect x="409" y="350" width="10" height="10" fill="white"/>
<rect x="399" y="350" width="10" height="10" fill="white"/>
<rect x="399" y="360" width="10" height="10" fill="white"/>
<rect x="389" y="360" width="10" height="10" fill="white"/>
<rect x="389" y="370" width="10" height="10" fill="white"/>
<rect y="370" width="389" height="10" fill="white"/>
<rect x="179" y="220" width="10" height="10" fill="white"/>
</svg>
