<svg width="170" height="170" viewBox="0 0 170 170" fill="none" xmlns="http://www.w3.org/2000/svg">
<mask id="path-1-outside-1" maskUnits="userSpaceOnUse" x="0" y="0" width="170" height="170" fill="black">
<rect fill="white" width="170" height="170"/>
<path fill-rule="evenodd" clip-rule="evenodd" d="M110 10H100H90H80H70H60V20H50H40V30H30V40H20V50V60H10V70V80V90V100V110H20V120V130H30L30 140H40L40 150L50 150H60V160H70H80H90H100H110V150H120H130V140H140V130H150V120V110H160V100V90V80V70V60H150V50V40H140V30L130 30L130 21L130 20H120L110 20V10Z"/>
</mask>
<path fill-rule="evenodd" clip-rule="evenodd" d="M110 10H100H90H80H70H60V20H50H40V30H30V40H20V50V60H10V70V80V90V100V110H20V120V130H30L30 140H40L40 150L50 150H60V160H70H80H90H100H110V150H120H130V140H140V130H150V120V110H160V100V90V80V70V60H150V50V40H140V30L130 30L130 21L130 20H120L110 20V10Z" fill="#FFE378"/>
<path d="M110 10H120V0H110V10ZM60 10V0H50V10H60ZM60 20V30H70V20H60ZM40 20V10H30V20H40ZM40 30V40H50V30H40ZM30 30V20H20V30H30ZM30 40V50H40V40H30ZM20 40V30H10V40H20ZM20 60V70H30V60H20ZM10 60V50H0V60H10ZM10 110H0V120H10V110ZM20 110H30V100H20V110ZM20 130H10V140H20V130ZM30 130H40L40 120H30V130ZM30 140H20L20 150H30V140ZM40 140L50 140L50 130H40V140ZM40 150L30 150L30 160L40 160L40 150ZM50 150L50 160H50V150ZM60 150H70V140H60V150ZM60 160H50V170H60V160ZM110 160V170H120V160H110ZM110 150V140H100V150H110ZM130 150V160H140V150H130ZM130 140V130H120V140H130ZM140 140V150H150V140H140ZM140 130V120H130V130H140ZM150 130V140H160V130H150ZM150 110V100H140V110H150ZM160 110V120H170V110H160ZM160 60H170V50H160V60ZM150 60H140V70H150V60ZM150 40H160V30H150V40ZM140 40H130V50H140V40ZM140 30H150V20L140 20V30ZM130 30L120 30L120 40L130 40V30ZM130 21L140 21L140 20.9999L130 21ZM130 20L140 19.9999L140 10H130V20ZM120 20V30V20ZM110 20H100V30L110 30V20ZM100 20H110V0H100V20ZM90 20H100V0H90V20ZM80 20H90V0H80V20ZM70 20H80V0H70V20ZM60 20H70V0H60V20ZM70 20V10H50V20H70ZM50 30H60V10H50V30ZM40 30H50V10H40V30ZM50 30V20H30V30H50ZM30 40H40V20H30V40ZM40 40V30H20V40H40ZM20 50H30V30H20V50ZM30 50V40H10V50H30ZM30 60V50H10V60H30ZM10 70H20V50H10V70ZM20 70V60H0V70H20ZM20 80V70H0V80H20ZM20 90V80H0V90H20ZM20 100V90H0V100H20ZM20 110V100H0V110H20ZM20 100H10V120H20V100ZM30 120V110H10V120H30ZM30 130V120H10V130H30ZM30 120H20V140H30V120ZM40 140L40 130H20L20 140H40ZM40 130H30V150H40V130ZM50 150L50 140L30 140L30 150L50 150ZM50 140L40 140L40 160L50 160L50 140ZM60 140H50V160H60V140ZM70 160V150H50V160H70ZM70 150H60V170H70V150ZM80 150H70V170H80V150ZM90 150H80V170H90V150ZM100 150H90V170H100V150ZM110 150H100V170H110V150ZM100 150V160H120V150H100ZM120 140H110V160H120V140ZM130 140H120V160H130V140ZM120 140V150H140V140H120ZM140 130H130V150H140V130ZM130 130V140H150V130H130ZM150 120H140V140H150V120ZM140 120V130H160V120H140ZM140 110V120H160V110H140ZM160 100H150V120H160V100ZM150 100V110H170V100H150ZM150 90V100H170V90H150ZM150 80V90H170V80H150ZM150 70V80H170V70H150ZM150 60V70H170V60H150ZM150 70H160V50H150V70ZM140 50V60H160V50H140ZM140 40V50H160V40H140ZM140 50H150V30H140V50ZM130 30V40H150V30H130ZM130 40L140 40V20L130 20V40ZM120 21L120 30L140 30V21L120 21ZM140 20.9999V19.9999L120 20.0001L120 21.0001L140 20.9999ZM130 10H120V30H130V10ZM110 30L120 30V10L110 10V30ZM100 10V20H120V10H100Z" fill="black" mask="url(#path-1-outside-1)"/>
<path fill-rule="evenodd" clip-rule="evenodd" d="M60 80H50V90H40V151H60V90V80ZM110 80H120V90H130V150H110V90V80Z" fill="#2B13E5"/>
<path fill-rule="evenodd" clip-rule="evenodd" d="M40 50H50V60H40V50ZM40 60V70H30V60H40ZM60 70H70V80H60H50V70H60ZM50 80V90H40V80H50ZM70 80H80V90H70V80ZM80 120H70V130V140H80H90H100V130V120H90H80ZM90 80H100V90H90V80ZM120 80V70H110H100V80H110H120ZM120 80V90H130V80H120ZM120 50H130V60H120V50ZM130 60H140V70H130V60Z" fill="black"/>
</svg>
