<svg width="599" height="370" viewBox="0 0 599 370" fill="none" xmlns="http://www.w3.org/2000/svg">
<rect x="5" y="55" width="589" height="310" fill="white" stroke="black" stroke-width="10"/>
<rect x="5" y="-5" width="589" height="50" transform="matrix(1 0 0 -1 0 50)" fill="#2B13E5" stroke="black" stroke-width="10"/>
<rect width="70" height="70" rx="35" transform="matrix(1 0 0 -1 80 245)" fill="#EF5452"/>
<path fill-rule="evenodd" clip-rule="evenodd" d="M119.438 209.5L130 220.062L126.062 224L115.5 213.438L104.938 224L101 220.062L111.562 209.5L101 198.938L104.938 195L115.5 205.562L126.062 195L130 198.938L119.438 209.5Z" fill="white"/>
<path d="M181.992 219.024V202.968H192.024V205.008H186.024V208.968H190.032V211.008H186.024V216.984H192.024V219.024H181.992ZM200.216 211.008V219.024H196.184V206.976H200.216V208.968H202.184V206.976H204.224V211.008H200.216ZM210.424 211.008V219.024H206.392V206.976H210.424V208.968H212.392V206.976H214.432V211.008H210.424ZM226.632 217.008V219.024H218.592V217.008H216.6V208.968H218.592V206.976H226.632V208.968H228.624V217.008H226.632ZM224.592 209.016H220.632V216.984H224.592V209.016ZM236.84 211.008V219.024H232.808V206.976H236.84V208.968H238.808V206.976H240.848V211.008H236.84ZM249.215 213.024V210.984H255.239V213.024H249.215ZM267.463 217.008V219.024H259.423V216.984H265.423V211.008H259.423V202.968H269.455V205.008H263.455V208.968H267.463V210.984H269.455V217.008H267.463ZM287.855 211.008V215.016H285.839V219.024H281.807V215.016H279.815V211.008H277.799V206.976H281.855V210.984H283.847V214.968H285.815V206.976H289.847V211.008H287.855ZM302.047 217.008V219.024H294.007V217.008H292.015V208.968H294.007V206.976H302.047V208.968H304.039V217.008H302.047ZM300.007 209.016H296.047V216.984H300.007V209.016ZM308.223 219.024V202.968H312.255V219.024H308.223ZM328.439 209.016V221.016H326.447V223.032H318.407V220.992H324.407V219.024H318.407V217.008H316.415V208.968H318.407V206.976H330.455V209.016H328.439ZM324.407 209.016H320.447V216.984H324.407V209.016ZM342.655 217.008V219.024H334.615V217.008H332.623V208.968H334.615V206.976H342.655V208.968H344.647V211.008H342.655V213.024H338.647V215.016H336.655V216.984H342.607V214.968H344.647V217.008H342.655ZM340.615 209.016H336.655V212.976H338.623V210.984H340.615V209.016ZM352.863 211.008V219.024H348.831V206.976H352.863V208.968H354.831V206.976H356.871V211.008H352.863ZM365.063 217.008V219.024H359.039V216.984H363.023V215.016H361.031V213.024H359.039V208.968H361.031V206.976H367.079V209.016H363.071V210.984H365.063V212.976H367.079V217.008H365.063Z" fill="black"/>
<rect x="543" y="5" width="51" height="50" fill="#EF5452"/>
<rect x="556" y="18" width="5" height="5" fill="black"/>
<rect x="561" y="23" width="5" height="5" fill="black"/>
<rect x="566" y="28" width="5" height="5" fill="black"/>
<rect x="571" y="33" width="5" height="5" fill="black"/>
<rect x="576" y="38" width="5" height="5" fill="black"/>
<rect x="571" y="23" width="5" height="5" fill="black"/>
<rect x="576" y="18" width="5" height="5" fill="black"/>
<rect x="561" y="33" width="5" height="5" fill="black"/>
<rect x="556" y="38" width="5" height="5" fill="black"/>
<rect x="543" y="5" width="51" height="50" stroke="black" stroke-width="10"/>
</svg>
