<svg width="720" height="452" viewBox="0 0 720 452" fill="none" xmlns="http://www.w3.org/2000/svg">
<line x1="-318" y1="451" x2="720" y2="451" stroke="#FFE378" stroke-width="2"/>
<line x1="-318" y1="361" x2="720" y2="361" stroke="#FFE378" stroke-width="2"/>
<line x1="-318" y1="271" x2="720" y2="271" stroke="#FFE378" stroke-width="2"/>
<line x1="-318" y1="181" x2="720" y2="181" stroke="#FFE378" stroke-width="2"/>
<line x1="-318" y1="91" x2="720" y2="91" stroke="#FFE378" stroke-width="2"/>
<line x1="-318" y1="1" x2="720" y2="1" stroke="#FFE378" stroke-width="2"/>
<line x1="-318" y1="391" x2="720" y2="391" stroke="#FFE378" stroke-width="2"/>
<line x1="-318" y1="301" x2="720" y2="301" stroke="#FFE378" stroke-width="2"/>
<line x1="-318" y1="211" x2="720" y2="211" stroke="#FFE378" stroke-width="2"/>
<line x1="-318" y1="121" x2="720" y2="121" stroke="#FFE378" stroke-width="2"/>
<line x1="-318" y1="31" x2="720" y2="31" stroke="#FFE378" stroke-width="2"/>
<line x1="-318" y1="421" x2="720" y2="421" stroke="#FFE378" stroke-width="2"/>
<line x1="-318" y1="331" x2="720" y2="331" stroke="#FFE378" stroke-width="2"/>
<line x1="-318" y1="241" x2="720" y2="241" stroke="#FFE378" stroke-width="2"/>
<line x1="-318" y1="151" x2="720" y2="151" stroke="#FFE378" stroke-width="2"/>
<line x1="-318" y1="61" x2="720" y2="61" stroke="#FFE378" stroke-width="2"/>
<line y1="-1" x2="527" y2="-1" transform="matrix(9.69681e-08 -1 -1 -1.97043e-08 130 529)" stroke="#FFE378" stroke-width="2"/>
<line y1="-1" x2="527" y2="-1" transform="matrix(9.69681e-08 -1 -1 -1.97043e-08 610 529)" stroke="#FFE378" stroke-width="2"/>
<line y1="-1" x2="527" y2="-1" transform="matrix(9.69681e-08 -1 -1 -1.97043e-08 40 529)" stroke="#FFE378" stroke-width="2"/>
<line y1="-1" x2="527" y2="-1" transform="matrix(9.69681e-08 -1 -1 -1.97043e-08 220 529)" stroke="#FFE378" stroke-width="2"/>
<line y1="-1" x2="527" y2="-1" transform="matrix(9.69681e-08 -1 -1 -1.97043e-08 700 529)" stroke="#FFE378" stroke-width="2"/>
<line y1="-1" x2="527" y2="-1" transform="matrix(9.69681e-08 -1 -1 -1.97043e-08 310 529)" stroke="#FFE378" stroke-width="2"/>
<line y1="-1" x2="527" y2="-1" transform="matrix(9.69681e-08 -1 -1 -1.97043e-08 400 529)" stroke="#FFE378" stroke-width="2"/>
<line y1="-1" x2="527" y2="-1" transform="matrix(9.69681e-08 -1 -1 -1.97043e-08 490 529)" stroke="#FFE378" stroke-width="2"/>
<line y1="-1" x2="527" y2="-1" transform="matrix(9.69681e-08 -1 -1 -1.97043e-08 580 529)" stroke="#FFE378" stroke-width="2"/>
<line y1="-1" x2="527" y2="-1" transform="matrix(9.69681e-08 -1 -1 -1.97043e-08 100 529)" stroke="#FFE378" stroke-width="2"/>
<line y1="-1" x2="527" y2="-1" transform="matrix(9.69681e-08 -1 -1 -1.97043e-08 10 529)" stroke="#FFE378" stroke-width="2"/>
<line y1="-1" x2="527" y2="-1" transform="matrix(9.69681e-08 -1 -1 -1.97043e-08 190 529)" stroke="#FFE378" stroke-width="2"/>
<line y1="-1" x2="527" y2="-1" transform="matrix(9.69681e-08 -1 -1 -1.97043e-08 670 529)" stroke="#FFE378" stroke-width="2"/>
<line y1="-1" x2="527" y2="-1" transform="matrix(9.69681e-08 -1 -1 -1.97043e-08 280 529)" stroke="#FFE378" stroke-width="2"/>
<line y1="-1" x2="527" y2="-1" transform="matrix(9.69681e-08 -1 -1 -1.97043e-08 370 529)" stroke="#FFE378" stroke-width="2"/>
<line y1="-1" x2="527" y2="-1" transform="matrix(9.69681e-08 -1 -1 -1.97043e-08 460 529)" stroke="#FFE378" stroke-width="2"/>
<line y1="-1" x2="527" y2="-1" transform="matrix(9.69681e-08 -1 -1 -1.97043e-08 550 529)" stroke="#FFE378" stroke-width="2"/>
<line y1="-1" x2="527" y2="-1" transform="matrix(9.69681e-08 -1 -1 -1.97043e-08 70 529)" stroke="#FFE378" stroke-width="2"/>
<line y1="-1" x2="527" y2="-1" transform="matrix(9.69681e-08 -1 -1 -1.97043e-08 160 529)" stroke="#FFE378" stroke-width="2"/>
<line y1="-1" x2="527" y2="-1" transform="matrix(9.69681e-08 -1 -1 -1.97043e-08 640 529)" stroke="#FFE378" stroke-width="2"/>
<line y1="-1" x2="527" y2="-1" transform="matrix(9.69681e-08 -1 -1 -1.97043e-08 250 529)" stroke="#FFE378" stroke-width="2"/>
<line y1="-1" x2="527" y2="-1" transform="matrix(9.69681e-08 -1 -1 -1.97043e-08 340 529)" stroke="#FFE378" stroke-width="2"/>
<line y1="-1" x2="527" y2="-1" transform="matrix(9.69681e-08 -1 -1 -1.97043e-08 430 529)" stroke="#FFE378" stroke-width="2"/>
<line y1="-1" x2="527" y2="-1" transform="matrix(9.69681e-08 -1 -1 -1.97043e-08 520 530)" stroke="#FFE378" stroke-width="2"/>
</svg>
